<svg width="185" height="145" viewBox="0 0 185 145" fill="none" xmlns="http://www.w3.org/2000/svg">
    <path d="M144.367 42.5039H40.6319C34.6858 42.5039 29.8604 47.3215 29.8604 53.2686V129.046H155.134V53.2686C155.139 47.3215 150.318 42.5039 144.367 42.5039Z" fill="#2C303D"/>
    <path d="M167.335 129.042H17.6641C17.6641 136.08 23.3735 141.781 30.4112 141.781H154.588C161.626 141.781 167.335 136.08 167.335 129.042Z" fill="white"/>
    <path d="M17.9824 131.87C19.2721 137.542 24.3439 141.78 30.4108 141.78H154.588C160.655 141.78 165.726 137.542 167.016 131.87H17.9824Z" fill="#7F7F7F"/>
    <path d="M167.335 129.042H17.6641C17.6641 130.017 17.7752 130.963 17.9829 131.87H167.017C167.224 130.963 167.335 130.017 167.335 129.042Z" fill="white"/>
    <path d="M107.595 129.042H77.4053L79.5113 131.87H105.489L107.595 129.042Z" fill="#ADADAD"/>
    <path d="M147.918 52.7666H37.0822C35.7973 52.7666 34.7588 53.8093 34.7588 55.0885V121.656C34.7588 122.94 35.8021 123.978 37.0822 123.978H147.918C149.203 123.978 150.241 122.935 150.241 121.656V55.0885C150.246 53.8045 149.203 52.7666 147.918 52.7666Z" fill="#00A8E1"/>
    <path d="M99.1706 46.6265H85.8294C85.2497 46.6265 84.7764 47.0995 84.7764 47.6788C84.7764 48.2581 85.2497 48.7311 85.8294 48.7311H99.1706C99.7503 48.7311 100.224 48.2581 100.224 47.6788C100.224 47.0995 99.7503 46.6265 99.1706 46.6265Z" fill="#ADADAD"/>
    <path d="M141.116 123.978H43.8828V72.2346C43.8828 69.039 46.4767 66.4468 49.6743 66.4468H135.325C138.523 66.4468 141.116 69.039 141.116 72.2346V123.978Z" fill="white"/>
    <path d="M134.272 71.5345C134.272 70.5642 135.06 69.7822 136.026 69.7822C136.997 69.7822 137.779 70.5691 137.779 71.5345C137.779 72.5048 136.992 73.2868 136.026 73.2868C135.06 73.2868 134.272 72.5 134.272 71.5345Z" fill="#00A8E1"/>
    <path d="M129.007 71.5345C129.007 70.5642 129.794 69.7822 130.76 69.7822C131.731 69.7822 132.514 70.5691 132.514 71.5345C132.514 72.5048 131.726 73.2868 130.76 73.2868C129.794 73.2868 129.007 72.5 129.007 71.5345Z" fill="#F08E58"/>
    <path d="M123.742 71.5345C123.742 70.5642 124.53 69.7822 125.496 69.7822C126.462 69.7822 127.249 70.5691 127.249 71.5345C127.249 72.5048 126.462 73.2868 125.496 73.2868C124.53 73.2868 123.742 72.5 123.742 71.5345Z" fill="#F9517D"/>
    <path d="M137.784 77.4961H47.2158V84.1625H137.784V77.4961Z" fill="#EDEAE6"/>
    <path d="M75.1204 87.3198H47.2158V123.978H75.1204V87.3198Z" fill="#EDEAE6"/>
    <path d="M137.784 87.3198H80.3906V89.4245H137.784V87.3198Z" fill="#EDEAE6"/>
    <path d="M137.784 94.2275H80.3906V96.3322H137.784V94.2275Z" fill="#EDEAE6"/>
    <path d="M137.784 101.135H80.3906V103.24H137.784V101.135Z" fill="#EDEAE6"/>
    <path d="M137.784 108.048H80.3906V110.153H137.784V108.048Z" fill="#EDEAE6"/>
    <path d="M137.784 114.956H80.3906V117.06H137.784V114.956Z" fill="#EDEAE6"/>
    <path d="M137.784 121.863H80.3906V123.968H137.784V121.863Z" fill="#EDEAE6"/>
    <path d="M61.1705 106.537C64.5157 106.537 67.2276 103.827 67.2276 100.484C67.2276 97.1403 64.5157 94.4302 61.1705 94.4302C57.8252 94.4302 55.1133 97.1403 55.1133 100.484C55.1133 103.827 57.8252 106.537 61.1705 106.537Z" fill="#DDDBD9"/>
    <path d="M72.1208 34.2598H17.8037V73H72.1208V34.2598Z" fill="#EC008C"/>
    <path d="M72.1208 72.9999H17.8037L41.7747 50.1288C43.612 48.375 46.3125 48.375 48.1498 50.1288L72.1208 72.9999Z" fill="#F266B9"/>
    <path d="M72.1208 72.9999H17.8037L41.7747 52.634C43.612 51.0706 46.3125 51.0706 48.1498 52.634L72.1208 72.9999Z" fill="#EC008C" fill-opacity="0.65"/>
    <path d="M17.8037 34.2598H72.1208L48.1498 57.1309C46.3125 58.8847 43.612 58.8847 41.7747 57.1309L17.8037 34.2598Z" fill="#F266B9"/>
    <path d="M17.8037 34.2598H72.1208L48.1498 54.6256C46.3125 56.1859 43.612 56.1859 41.7747 54.6256L17.8037 34.2598Z" fill="#EC008C" fill-opacity="0.65"/>
    <path d="M48.1498 53.2588C46.3125 54.7144 43.612 54.7144 41.7747 53.2588L17.8037 34.2598L41.7747 54.6256C43.612 56.1891 46.3125 56.1891 48.1498 54.6256L72.1208 34.2598L48.1498 53.2588Z" fill="#F266B9"/>
    <path d="M17.8037 73.0001H72.1208C72.1208 73.0001 60.6779 71.646 44.9638 71.646C29.2466 71.646 17.8037 73.0001 17.8037 73.0001Z" fill="#F266B9"/>
    <path d="M72.1208 34.2598H17.8037C17.8037 34.2598 29.2466 35.6139 44.9607 35.6139C60.6779 35.6139 72.1208 34.2598 72.1208 34.2598Z" fill="#F266B9"/>
    <path d="M57.3749 28.4029C57.3749 21.5524 51.8189 16 44.9641 16C38.1093 16 32.5498 21.5524 32.5498 28.4029C32.5498 34.1338 36.4393 38.9515 41.7222 40.379L44.9641 43.6188L48.206 40.379C53.4854 38.955 57.3749 34.1338 57.3749 28.4029Z" fill="#E8E8E8"/>
    <path d="M44.4954 22.5459L40.0527 25.6213L41.7682 28.0983L44.4954 26.2125V34.2596H47.5097V22.5459H44.4954Z" fill="#00A8E1"/>
    <path d="M166.403 103.24H135.17C133.702 103.24 132.514 104.427 132.514 105.895V114.106V114.405V119.58L135.04 117.055C135.083 117.055 135.127 117.06 135.17 117.06H166.403C167.871 117.06 169.06 115.873 169.06 114.405V105.895C169.06 104.432 167.871 103.24 166.403 103.24Z" fill="#EC008C"/>
    <path d="M145.159 111.258V109.124C145.159 107.396 143.754 105.991 142.024 105.991C140.295 105.991 138.89 107.396 138.89 109.124V111.258L137.89 112.643H146.159L145.159 111.258Z" fill="white"/>
    <path d="M142.024 114.314C142.628 114.314 143.121 113.821 143.121 113.218H140.928C140.928 113.821 141.42 114.314 142.024 114.314Z" fill="white"/>
    <path d="M164.268 105.986H149.381V107.367H164.268V105.986Z" fill="white"/>
    <path d="M164.268 109.317H149.381V110.697H164.268V109.317Z" fill="white"/>
    <path d="M159.157 112.643H149.381V114.024H159.157V112.643Z" fill="white"/>
</svg>
