<svg width="30" height="31" viewBox="0 0 30 31" fill="none" xmlns="http://www.w3.org/2000/svg">
    <path d="M7.54688 23.2344C7.3125 23.1875 7.125 23.1406 6.89062 23.0469C6.65625 22.9531 6.46875 22.9063 6.28125 22.8125C5.85938 22.625 5.48438 22.3906 5.10938 22.1094C4.35937 21.5938 3.75 20.8906 3.28125 20.0469C2.8125 19.25 2.53125 18.3125 2.48438 17.4219C2.4375 16.9531 2.48438 16.5313 2.53125 16.0625C2.57812 15.8281 2.625 15.6406 2.67187 15.4063C2.71875 15.1719 2.8125 14.9844 2.85938 14.75L2.90625 15.4063C2.90625 15.6406 2.95312 15.8281 3 16.0625C3.04688 16.4844 3.14062 16.9063 3.23438 17.2813C3.42188 18.0781 3.70312 18.8281 4.125 19.5313C4.54688 20.2344 5.01562 20.8906 5.625 21.5C5.90625 21.7813 6.23438 22.0625 6.5625 22.3438C6.70312 22.4844 6.89062 22.625 7.07812 22.7656L7.54688 23.2344ZM7.40625 24.9219C7.26562 25.0156 7.07812 25.0625 6.89062 25.1094C6.70312 25.1563 6.5625 25.2031 6.375 25.2031C6.04688 25.25 5.67188 25.2969 5.29688 25.25C4.59375 25.2031 3.84375 25.0156 3.23438 24.6875C2.57812 24.3594 2.01562 23.8438 1.64062 23.2344C1.45312 22.9531 1.26563 22.625 1.125 22.2969C1.07813 22.1563 1.03125 21.9688 0.984375 21.7813C0.984375 21.6406 0.9375 21.5 0.9375 21.3125C1.07812 21.4531 1.17188 21.5938 1.26563 21.6875C1.40625 21.8281 1.5 21.9688 1.59375 22.0625C1.82813 22.2969 2.01563 22.5313 2.25 22.7188C2.71875 23.1406 3.1875 23.5156 3.75 23.7969C4.26562 24.0781 4.875 24.3125 5.4375 24.5C5.71875 24.5938 6.04688 24.6406 6.375 24.7344C6.51562 24.7813 6.70312 24.7813 6.84375 24.8281C7.07812 24.875 7.21875 24.875 7.40625 24.9219ZM18 2.14063C18.2344 2.1875 18.4219 2.28125 18.6562 2.375C18.8906 2.46875 19.0781 2.5625 19.2656 2.65625C19.6875 2.89063 20.0625 3.125 20.4375 3.40625C21.1875 3.96875 21.7969 4.71875 22.2188 5.5625C22.6406 6.40625 22.875 7.34375 22.875 8.23438C22.875 8.70313 22.8281 9.125 22.7344 9.59375C22.6875 9.82813 22.6406 10.0156 22.5469 10.25C22.4531 10.4844 22.4062 10.6719 22.3125 10.8594L22.2656 10.2031C22.2656 9.96875 22.2656 9.78125 22.2188 9.54688L22.0781 8.28125C21.9375 7.48438 21.6562 6.6875 21.2812 5.9375C20.9062 5.1875 20.4375 4.53125 19.875 3.92188C19.5938 3.59375 19.2656 3.3125 18.9844 2.98438C18.8438 2.84375 18.6562 2.70313 18.4688 2.5625L18 2.14063ZM22.0781 1.95312C22.2656 2 22.4062 2.04688 22.5469 2.14063C22.6875 2.1875 22.875 2.28125 23.0156 2.375C23.2969 2.5625 23.5781 2.75 23.8594 2.98438C24.375 3.45313 24.7969 4.01563 25.0312 4.67188C25.3125 5.32813 25.4062 6.03125 25.3125 6.73438C25.2656 7.0625 25.1719 7.39063 25.0781 7.71875C25.0312 7.85938 24.9375 8.04688 24.8906 8.1875C24.7969 8.32813 24.75 8.46875 24.6094 8.60938V7.67188C24.6094 7.34375 24.5625 7.0625 24.5625 6.78125C24.4688 6.17188 24.375 5.60938 24.1406 5.09375C23.9062 4.53125 23.625 4.0625 23.2969 3.54688C23.1094 3.3125 22.9219 3.03125 22.7344 2.79688C22.6406 2.65625 22.5469 2.5625 22.4062 2.42188C22.3125 2.1875 22.1719 2.04688 22.0781 1.95312Z" fill="#A8A8A8"/>
    <path d="M4.6871 8.93738C3.7496 9.35925 3.42147 10.4843 3.84335 11.4218L9.7496 23.7499L13.0308 22.203L7.1246 9.828C6.70272 8.8905 5.6246 8.46863 4.6871 8.93738ZM20.2027 18.7343L23.6715 17.0936L16.9215 3.03113C16.4527 2.09363 15.3277 1.67176 14.3433 2.14051C13.4058 2.60926 12.984 3.73426 13.4527 4.71863L20.2027 18.7343Z" fill="#FFC554"/>
    <path d="M14.3906 2.09384C14.2969 2.14071 14.2031 2.18759 14.1094 2.28134C15 2.04696 15.9375 2.46884 16.3594 3.31259L23.1094 17.3751L23.7187 17.0938L16.9688 3.03134C16.5 2.04696 15.375 1.62509 14.3906 2.09384Z" fill="#EE9C40"/>
    <path d="M13.0313 22.1561L16.6407 20.4218L9.75009 6.07802C9.28134 5.09365 8.06259 4.6249 7.07821 5.09365C6.09384 5.5624 5.67196 6.78115 6.14071 7.76552L13.0313 22.1561Z" fill="#FFC554"/>
    <path d="M7.07813 5.1407C6.98438 5.18758 6.89063 5.23445 6.79688 5.3282C7.6875 5.09383 8.71875 5.5157 9.14063 6.40633L13.4063 15.3595L14.4375 15.9688L9.75 6.12508C9.28125 5.09383 8.10938 4.67195 7.07813 5.1407Z" fill="#EE9C40"/>
    <path d="M16.0782 19.2969L19.6876 17.5625L12.797 3.21873C12.3282 2.23435 11.1095 1.7656 10.1251 2.28123C9.14071 2.74998 8.71884 3.96873 9.18759 4.9531L16.0782 19.2969Z" fill="#FFC554"/>
    <path d="M10.125 2.23445C10.0313 2.28133 9.9375 2.37508 9.84375 2.42195C10.7344 2.18758 11.7656 2.60945 12.1875 3.50008L17.0156 13.6251L18.0469 14.2345L12.7969 3.21883C12.3281 2.18758 11.1094 1.7657 10.125 2.23445ZM4.6875 8.93758C4.59375 8.98445 4.5 9.03133 4.40625 9.12508C5.25 8.8907 6.14062 9.31258 6.51562 10.1563L10.0312 17.5157L11.0625 18.1251L7.125 9.87508C6.70312 8.8907 5.625 8.46883 4.6875 8.93758Z" fill="#EE9C40"/>
    <path d="M28.5 7.53137C27.2343 6.54699 25.1718 7.62512 24.1406 11.0001C23.4375 13.3439 23.3437 14.047 21.8437 14.7501L21 13.0157C21 13.0157 7.68745 19.4376 8.20308 20.4689C8.20308 20.4689 9.79683 25.4376 12.5156 27.7345C16.5468 31.2032 25.9687 27.5001 26.3906 18.547C26.625 13.3439 29.8593 8.60949 28.5 7.53137Z" fill="#FFC554"/>
    <path d="M28.5 7.53125C28.2656 7.34375 27.9844 7.25 27.7031 7.20312C27.75 7.25 27.8438 7.25 27.8906 7.29687C29.2969 8.375 27.8438 10.8594 27.0469 13.1094C26.3906 14.8906 25.8281 16.7188 25.9219 18.5C26.2969 26.2813 18.4688 29.9844 13.7812 28.5781C18.375 30.5 26.9062 26.8438 26.5312 18.7344C26.4375 16.9531 26.9531 15.2188 27.6562 13.3437C28.4062 11.0937 29.8594 8.60937 28.5 7.53125Z" fill="#EE9C40"/>
    <path d="M22.2659 14.5625C19.3597 14.8906 15.0941 19.0625 18.0941 23.6094C15.8909 19.0156 19.5003 15.9219 21.7972 14.8438C22.0316 14.6563 22.2659 14.5625 22.2659 14.5625Z" fill="#EE9C40"/>
</svg>
