<svg width="173" height="144" viewBox="0 0 173 144" fill="none" xmlns="http://www.w3.org/2000/svg">
<path d="M1.7002 0.189941L19.9602 43.0599L33.3202 33.9199L41.0602 45.1699L42.4502 26.1999L58.6102 16.3499L1.7002 0.189941Z" fill="#FFB031"/>
<path d="M36.2802 31.9001L19.9602 43.0601L33.3202 33.9201L41.0602 45.1701L42.4502 26.2001L16.7002 10.8701L36.2802 31.9001Z" fill="#FF9433"/>
<path d="M42.1102 30.8501L16.7002 10.8701L42.4502 26.2001L42.1102 30.8501Z" fill="#FF7733"/>
<path d="M41.3798 50.5099C41.2398 49.6699 41.0498 48.8399 40.8398 48.0299L42.0898 47.6899C42.3198 48.5399 42.5098 49.4099 42.6598 50.2799L41.3798 50.5099Z" fill="#00A8E1"/>
<path d="M26.2603 79.6298C24.3803 79.4998 22.5803 78.8998 21.0503 77.8898L21.7703 76.8098C23.1103 77.6998 24.6903 78.2198 26.3503 78.3298L26.2603 79.6298ZM31.6403 78.5698L31.0703 77.4098C32.4203 76.7498 33.7203 75.7198 34.9503 74.3598L35.9203 75.2298C34.5803 76.7098 33.1403 77.8398 31.6403 78.5698ZM17.4403 73.7498C16.7103 72.2698 16.3203 70.6398 16.3203 69.0398C16.3203 68.9098 16.3203 68.7798 16.3303 68.6498L16.3503 68.3698L17.6403 68.4598L17.6303 68.6998C17.6303 68.8198 17.6203 68.9298 17.6203 69.0398C17.6203 70.4398 17.9603 71.8698 18.6003 73.1798L17.4403 73.7498ZM67.6103 73.4598L67.6003 72.1598C69.2903 72.1498 71.0303 72.0798 72.7703 71.9498L72.8703 73.2398C71.1003 73.3798 69.3303 73.4498 67.6103 73.4598ZM62.3503 73.2898L61.5203 73.2298C59.9303 73.0998 58.4803 72.9198 57.1003 72.6798L57.3203 71.3998C58.6603 71.6298 60.0703 71.8098 61.6203 71.9398L62.4303 71.9998L62.3503 73.2898ZM78.0903 72.6998L77.9203 71.4098C79.5903 71.1798 81.3103 70.8998 83.0303 70.5698L83.2803 71.8398C81.5303 72.1798 79.7803 72.4698 78.0903 72.6998ZM51.9603 71.3898C50.4403 70.8698 49.0103 70.2398 47.7103 69.5098C47.5103 69.3998 47.3003 69.2798 47.1003 69.1598L47.7703 68.0498C47.9603 68.1598 48.1503 68.2798 48.3403 68.3798C49.5703 69.0698 50.9203 69.6698 52.3703 70.1698L51.9603 71.3898ZM39.0103 70.8698L37.8903 70.2198C38.7303 68.7598 39.4503 67.1998 40.0303 65.5998L41.2503 66.0398C40.6403 67.7198 39.8903 69.3398 39.0103 70.8698ZM88.4003 70.7198L88.0903 69.4598C89.7103 69.0698 91.4003 68.6198 93.1103 68.1298L93.4703 69.3798C91.7403 69.8798 90.0403 70.3298 88.4003 70.7198ZM98.4803 67.8498L98.0803 66.6198C99.7303 66.0898 101.37 65.5298 103 64.9498L103.43 66.1698C101.79 66.7498 100.14 67.3198 98.4803 67.8498ZM42.7703 66.1398C41.5803 65.2698 40.3003 64.3598 38.9103 63.5998L38.4803 63.3698L39.0703 62.2198C39.2203 62.2998 39.3803 62.3798 39.5303 62.4698C40.9903 63.2698 42.3603 64.2398 43.5303 65.0998L42.7703 66.1398ZM19.4503 64.1898L18.5403 63.2598C19.6803 62.1398 21.2403 61.2998 23.3103 60.6998L23.7503 61.9198C21.8503 62.4898 20.4303 63.2398 19.4503 64.1898ZM33.7403 61.6598C32.2703 61.3298 30.7503 61.1598 29.2503 61.1598L28.7203 61.1698L28.6903 59.8698C30.4803 59.8298 32.2803 59.9998 34.0303 60.3898L33.7403 61.6598ZM42.6203 60.8998L41.3403 60.6698C41.6403 58.9898 41.7903 57.2898 41.8003 55.5898L43.1003 55.5998C43.0903 57.3698 42.9303 59.1498 42.6203 60.8998Z" fill="#00A8E1"/>
<path d="M108.391 64.3397L107.931 63.1297C108.741 62.8197 109.541 62.5097 110.351 62.1997L110.821 63.4097C110.021 63.7197 109.211 64.0297 108.391 64.3397Z" fill="#00A8E1"/>
<path d="M149.22 95.9499C148.56 95.9499 148 95.4499 147.93 94.7799C147.86 94.0699 148.38 93.4299 149.1 93.3599C156.94 92.5999 164.15 88.8599 169.4 82.8299C169.87 82.2899 170.69 82.2299 171.23 82.6999C171.77 83.1699 171.83 83.9899 171.36 84.5299C165.67 91.0699 157.85 95.1199 149.35 95.9399C149.3 95.9399 149.26 95.9499 149.22 95.9499Z" fill="#008FC0"/>
<path d="M133.42 95.0397L88.2396 121.68L43.0596 95.0397C43.0596 95.0197 43.0596 94.9897 43.0696 94.9697C43.1096 94.7997 45.5996 92.7197 49.3996 89.6297C49.4396 89.5997 49.4696 89.5697 49.4996 89.5397C61.9796 79.3997 88.2396 58.6597 88.2396 58.6597C88.2396 58.6597 114.5 79.3997 126.98 89.5297C130.84 92.6597 133.38 94.7797 133.42 94.9597C133.42 94.9797 133.42 95.0097 133.42 95.0397Z" fill="#7A4C08"/>
<path d="M106.82 36.5996H58.07C53.89 36.5996 50.5 39.9896 50.5 44.1696V117.87C50.5 122.05 53.89 125.44 58.07 125.44H119.15C123.33 125.44 126.72 122.05 126.72 117.87V56.4996L106.82 36.5996Z" fill="white"/>
<path d="M106.82 48.9298C106.82 53.1098 110.21 56.4998 114.39 56.4998H126.72L106.82 36.5898V48.9298Z" fill="white"/>
<path d="M81.5403 49.0498H64.7303C63.2403 49.0498 62.0303 50.2598 62.0303 51.7498V68.5698C62.0303 70.0598 63.2403 71.2698 64.7303 71.2698H81.5503C83.0403 71.2698 84.2503 70.0598 84.2503 68.5698V51.7498C84.2403 50.2598 83.0303 49.0498 81.5403 49.0498Z" fill="#00A8E1" fill-opacity="0.3"/>
<path d="M104.58 77.4399H64.2296C63.0296 77.4399 62.0596 78.4099 62.0596 79.6099C62.0596 80.8099 63.0296 81.7799 64.2296 81.7799H104.58C105.78 81.7799 106.75 80.8099 106.75 79.6099C106.75 78.4099 105.78 77.4399 104.58 77.4399Z" fill="#D9DBDB"/>
<path d="M104.58 88.2598H64.2296C63.0296 88.2598 62.0596 89.2298 62.0596 90.4298C62.0596 91.6298 63.0296 92.5998 64.2296 92.5998H104.58C105.78 92.5998 106.75 91.6298 106.75 90.4298C106.75 89.2298 105.78 88.2598 104.58 88.2598Z" fill="#D9DBDB"/>
<path d="M86.2596 98.7598H64.2296C63.0296 98.7598 62.0596 99.7298 62.0596 100.93C62.0596 102.13 63.0296 103.1 64.2296 103.1H86.2596C87.4596 103.1 88.4296 102.13 88.4296 100.93C88.4296 99.7398 87.4596 98.7598 86.2596 98.7598Z" fill="#D9DBDB"/>
<path d="M133.42 95.0298V138.37C133.42 141.4 130.94 143.88 127.91 143.88H48.5496C45.5196 143.88 43.0596 141.4 43.0596 138.37V95.0298L88.2396 121.67L133.42 95.0298Z" fill="#FFB031"/>
<path d="M131.889 142.16L102.809 113.08L88.2391 121.67L73.6591 113.07L44.5791 142.15C45.5791 143.21 46.9891 143.88 48.5491 143.88H127.909C129.479 143.88 130.889 143.21 131.889 142.16Z" fill="#FF9433"/>
<path d="M142.55 35.5298C129.54 36.8098 119.15 47.5298 118.22 60.5598C117.76 67.0498 119.6 73.0698 122.98 77.9498C124.26 79.7898 124.46 82.1598 123.61 84.2198L121.47 89.3798L130.24 87.1098C131.67 86.7398 133.18 86.8598 134.53 87.4398C138.59 89.1998 143.17 90.0098 147.98 89.5398C160.75 88.2998 171.07 77.9898 172.31 65.2298C173.95 48.1098 159.68 33.8498 142.55 35.5298Z" fill="#00A8E1"/>
<path d="M145.96 76.2597L147.45 74.7697C147.45 74.7697 146.27 71.9797 151.23 67.2697C154.19 64.4697 154.85 61.7497 154.61 59.5297C154.23 55.9997 151.34 53.1097 147.81 52.7297C145.59 52.4897 142.88 53.1497 140.07 56.1097C135.36 61.0797 132.57 59.8897 132.57 59.8897L131.08 61.3797L145.96 76.2597Z" fill="white"/>
<path d="M134.45 67.1401C133.27 68.7501 133.4 71.0201 134.86 72.4801C136.32 73.9401 138.59 74.0701 140.2 72.8901L134.45 67.1401Z" fill="white"/>
<path d="M155.66 54.5399L154.73 55.4699C154.01 54.3199 153.02 53.3399 151.87 52.6199L152.81 51.6799C153.6 50.8899 154.88 50.8899 155.67 51.6799C156.45 52.4699 156.45 53.7499 155.66 54.5399Z" fill="white"/>
<path d="M144.561 35.4199C154.231 38.3099 161.281 47.2699 161.281 57.8799C161.281 70.8299 150.781 81.3299 137.831 81.3299C131.011 81.3299 124.881 78.3999 120.601 73.7499C121.281 75.2299 122.071 76.6399 122.981 77.9599C124.261 79.7999 124.461 82.1699 123.611 84.2299L121.471 89.3899L130.241 87.1199C131.671 86.7499 133.181 86.8699 134.531 87.4499C138.591 89.2099 143.171 90.0199 147.981 89.5499C160.751 88.3099 171.071 78.0099 172.311 65.2399C173.891 48.7899 160.781 34.9899 144.561 35.4199Z" fill="#008FC0"/>
<path d="M3.23998 12.9102L9.16998 26.5102C9.46999 27.2002 9.14998 28.0102 8.45998 28.3102L8.24998 28.4002C7.54998 28.7002 6.73998 28.3802 6.44998 27.6802L0.729984 13.9802C0.429984 13.2602 0.789984 12.4402 1.51998 12.1702C2.19998 11.9202 2.95998 12.2402 3.23998 12.9102Z" fill="#FFB031"/>
</svg>
