<svg width="25" height="26" viewBox="0 0 25 26" fill="none" xmlns="http://www.w3.org/2000/svg">
<path d="M20.5841 10.9069L20.6902 11.013L23.2611 13.5837L23.2612 13.5837C23.4893 13.812 23.8322 13.8818 24.1316 13.761C24.431 13.6401 24.6292 13.352 24.6349 13.029L24.6349 13.029L24.8499 1.12177C24.8538 0.9034 24.7688 0.692657 24.6143 0.538173L20.5841 10.9069ZM20.5841 10.9069L20.4781 11.013L6.72504 24.766C6.56783 24.9232 6.36207 25.0018 6.15581 25.0018C5.94982 25.0018 5.74405 24.9232 5.58682 24.766L5.48076 24.872M20.5841 10.9069L5.48076 24.872M5.48076 24.872L5.58682 24.766L0.385776 19.5654C0.234751 19.4144 0.15 19.2096 0.15 18.9962C0.15 18.7829 0.234908 18.5781 0.385776 18.427L5.48076 24.872ZM11.5683 1.89086L11.5683 1.89081L0.385848 18.4269L14.139 4.67369L14.2451 4.56763L14.139 4.46156L11.5683 1.89086ZM12.123 0.51684L24.0296 0.302389L12.123 0.51684ZM22.81 10.8558L23.0596 11.1054L23.066 10.7524L23.2225 2.08264L23.2253 1.92716L23.0699 1.92996L14.3996 2.086L14.0466 2.09236L14.2962 2.34204L15.9525 3.99863L15.9526 3.99871C16.1036 4.14945 16.1883 4.3542 16.1883 4.56763C16.1883 4.78126 16.1036 4.98582 15.9526 5.13686L2.19929 18.8901L2.09322 18.9962L2.19929 19.1023L6.04975 22.9525L6.15581 23.0585L6.26188 22.9525L20.0151 9.19945L20.0152 9.19937C20.1659 9.04844 20.3707 8.96367 20.5844 8.96367C20.7978 8.96367 21.0025 9.04843 21.1533 9.19937L21.1534 9.19945L22.81 10.8558Z" fill="#318CDC" stroke="white" stroke-width="0.3"/>
</svg>
