<svg width="30" height="31" viewBox="0 0 30 31" fill="none" xmlns="http://www.w3.org/2000/svg">
<path d="M12.4995 30.1514C5.6248 30.1514 0 24.5266 0 17.6519C0 10.7771 5.6248 5.15234 12.4995 5.15234C19.3743 5.15234 24.9991 10.7771 24.9991 17.6519C24.9991 24.5266 19.3743 30.1514 12.4995 30.1514ZM12.4995 6.4023C6.24977 6.4023 1.24995 11.4021 1.24995 17.6519C1.24995 23.9017 6.24977 28.9015 12.4995 28.9015C18.7493 28.9015 23.7491 23.9017 23.7491 17.6519C23.7491 11.4021 18.7493 6.4023 12.4995 6.4023Z" fill="#318CDC"/>
<path d="M12.4997 25.7768C7.99987 25.7768 4.375 22.1519 4.375 17.6521C4.375 13.1522 7.99987 9.52734 12.4997 9.52734C16.9995 9.52734 20.6244 13.1522 20.6244 17.6521C20.6244 22.1519 16.9995 25.7768 12.4997 25.7768ZM12.4997 10.7773C8.74984 10.7773 5.62495 13.9022 5.62495 17.6521C5.62495 21.4019 8.74984 24.5268 12.4997 24.5268C16.2496 24.5268 19.3745 21.4019 19.3745 17.6521C19.3745 13.9022 16.2496 10.7773 12.4997 10.7773Z" fill="#318CDC"/>
<path d="M12.5008 21.4021C10.3759 21.4021 8.75098 19.7771 8.75098 17.6522C8.75098 15.5273 10.3759 13.9023 12.5008 13.9023C14.6258 13.9023 16.2507 15.5273 16.2507 17.6522C16.2507 19.7771 14.6258 21.4021 12.5008 21.4021ZM12.5008 15.1523C11.1259 15.1523 10.0009 16.2773 10.0009 17.6522C10.0009 19.0272 11.1259 20.1521 12.5008 20.1521C13.8758 20.1521 15.0008 19.0272 15.0008 17.6522C15.0008 16.2773 13.8758 15.1523 12.5008 15.1523Z" fill="#318CDC"/>
<path d="M12.5 18.277C12.375 18.277 12.125 18.277 12 18.152C11.75 17.902 11.75 17.527 12 17.277L21.3747 7.90234C21.6246 7.65235 21.9996 7.65235 22.2496 7.90234C22.4996 8.15233 22.4996 8.52731 22.2496 8.77731L12.875 18.152C12.875 18.277 12.625 18.277 12.5 18.277Z" fill="#318CDC"/>
<path d="M25.0008 8.90203H21.876C21.501 8.90203 21.251 8.65204 21.251 8.27705V5.15216C21.251 5.02717 21.376 4.77718 21.376 4.65218L25.7508 0.277339C26.0008 0.152344 26.2508 0.152344 26.5008 0.152344C26.7508 0.277339 26.8758 0.52733 26.8758 0.777321V3.27723H29.3757C29.6257 3.27723 29.8757 3.40223 30.0007 3.65222C30.0007 3.90221 30.0007 4.1522 29.8757 4.40219L25.5008 8.77703C25.3758 8.77703 25.1258 8.90203 25.0008 8.90203ZM22.5009 7.65207H24.7508L27.8757 4.52719H26.2508C25.8758 4.52719 25.6258 4.2772 25.6258 3.90221V2.27727L22.5009 5.40215V7.65207Z" fill="#318CDC"/>
</svg>
