<svg width="20" height="22" viewBox="0 0 20 22" fill="none" xmlns="http://www.w3.org/2000/svg">
<path d="M10 0C9.48585 0 8.97499 0.177692 8.53488 0.502615L7.17259 1.48077L5.60299 1.69231H5.57749L5.55199 1.71854C5.03721 1.83811 4.56592 2.1053 4.19275 2.48914C3.81958 2.87298 3.55982 3.35774 3.44357 3.88723L3.41889 3.91346V3.93969L3.21323 5.57954L2.26226 6.84877L2.23593 6.875V6.90123C1.66091 7.84639 1.63541 9.06654 2.26226 9.96854L3.23873 11.3698L3.49622 12.8252L0.848141 16.9755L0 18.2718H3.93304L4.88401 20.5455L5.47549 22L6.32363 20.6775L8.91988 16.6582C9.61747 16.9527 10.4047 16.9798 11.0801 16.6582L13.6764 20.6775L14.5245 22L15.116 20.5455L16.067 18.2718H20L19.1519 16.9755L16.5811 12.9572L16.7868 11.3706L17.7377 9.96938L17.7641 9.94315V9.91692C18.3391 8.97177 18.3646 7.77785 17.7377 6.87585L16.7868 5.47377L16.4783 3.88723H16.5038C16.5005 3.86692 16.4816 3.85338 16.4783 3.83392C16.3302 2.72715 15.4788 1.82854 14.3962 1.69231H14.3699L12.8274 1.48077L11.4651 0.502615C11.0397 0.182023 10.5274 0.00628571 10 0ZM10 1.71854C10.1892 1.71854 10.3759 1.77777 10.5141 1.87762L11.9793 2.96154L12.1594 3.09354L12.3651 3.12062L14.165 3.38462H14.1897C14.5599 3.42692 14.8166 3.69177 14.8585 4.07254V4.125L15.1933 6.00262L15.218 6.18792L15.3472 6.34615L16.401 7.85315C16.5976 8.13408 16.6231 8.61046 16.3755 9.01662L15.2188 10.6827L15.1925 10.8942L14.9358 12.7456V12.771C14.9221 12.9032 14.8782 13.0302 14.8075 13.1416L14.7557 13.1687V13.1941C14.6334 13.3451 14.4581 13.4403 14.2679 13.4589H14.216L12.3396 13.8033L12.1339 13.8287L11.9793 13.9615L10.5141 15.0455C10.241 15.2477 9.75239 15.2739 9.35752 15.0192L8.02073 13.9615L7.86607 13.8295L7.63491 13.8025L5.83498 13.5385H5.8103C5.69398 13.5279 5.58184 13.4887 5.48333 13.4242C5.38483 13.3597 5.30285 13.2718 5.24432 13.1678C5.18966 13.0703 5.15468 12.9623 5.14149 12.8505V12.7981L4.8075 10.868L4.78118 10.6565L4.65285 10.4974L3.59905 8.99039C3.40243 8.70946 3.37693 8.20685 3.62455 7.80069L4.65285 6.42569L4.78118 6.26662L4.80668 6.02885L5.03866 4.257C5.04195 4.24431 5.06087 4.24431 5.06417 4.23077C5.11545 4.02708 5.21877 3.84121 5.36342 3.69242C5.50807 3.54364 5.68878 3.43737 5.8868 3.38462C5.89997 3.38123 5.89997 3.36177 5.91231 3.35838L7.63491 3.11977L7.84057 3.09438L8.02073 2.96154L9.48585 1.87762C9.62405 1.77862 9.81079 1.71854 10 1.71854ZM15.6811 14.5962L16.9414 16.5795H14.9605L14.7549 17.1084L14.1897 18.4563L12.4416 15.7063L12.8266 15.4161L14.4472 15.125V15.1512C14.4661 15.1478 14.4784 15.1284 14.4982 15.125C14.9312 15.0607 15.3394 14.8781 15.6803 14.5962H15.6811ZM4.31885 14.6224C4.67606 14.9564 5.12482 15.1689 5.60382 15.2308H5.62932L7.19809 15.4423L7.55758 15.7334L5.80948 18.4563L5.24432 17.1084L5.03866 16.5795H3.05939L4.31885 14.6224Z" fill="#666666"/>
</svg>
