<svg width="29" height="29" viewBox="0 0 29 29" fill="none" xmlns="http://www.w3.org/2000/svg">
<path d="M22.6142 5.99055C20.3505 3.74245 17.5857 2.617 14.335 2.617C11.0686 2.617 8.2929 3.75332 6.02311 6.02311C3.75332 8.2929 2.617 11.0686 2.617 14.335C2.617 17.5857 3.74245 20.3505 5.99055 22.6142L5.93347 22.7365L6.05579 22.6795C8.31952 24.9275 11.0843 26.053 14.335 26.053C17.6014 26.053 20.3771 24.9167 22.6469 22.6469C24.9167 20.3771 26.053 17.6014 26.053 14.335C26.053 11.0843 24.9275 8.31952 22.6795 6.05579L22.7365 5.93347L22.6142 5.99055ZM15.5342 13.1364L15.5336 13.1358C15.2092 12.8126 14.804 12.6515 14.335 12.6515C13.866 12.6515 13.4611 12.8126 13.1376 13.1361C12.8132 13.4605 12.6515 13.8658 12.6515 14.335C12.6515 14.8041 12.8131 15.209 13.1376 15.5324C13.461 15.8569 13.8659 16.0185 14.335 16.0185C14.8042 16.0185 15.2095 15.8568 15.5339 15.5324C15.8574 15.2089 16.0185 14.804 16.0185 14.335C16.0185 13.866 15.8574 13.4608 15.5342 13.1364ZM8.84345 27.3109L8.84335 27.3108C7.12708 26.5707 5.63665 25.5671 4.36976 24.3002C3.10288 23.0334 2.09927 21.5429 1.35916 19.8267L1.35912 19.8265C0.620155 18.1151 0.25 16.2854 0.25 14.335C0.25 12.3846 0.620155 10.5549 1.35912 8.84345L1.35916 8.84335C2.09927 7.12708 3.10288 5.63665 4.36976 4.36976C5.63664 3.10289 7.12707 2.0988 8.84335 1.35773C10.5548 0.619694 12.3845 0.25 14.335 0.25C16.2855 0.25 18.1151 0.619679 19.8265 1.35768C21.5429 2.09876 23.0333 3.10286 24.3002 4.36976C25.5671 5.63665 26.5707 7.12708 27.3108 8.84335L27.3109 8.84345C28.0498 10.5549 28.42 12.3846 28.42 14.335C28.42 16.2854 28.0498 18.1151 27.3109 19.8265L27.3108 19.8267C26.5707 21.5429 25.5671 23.0334 24.3002 24.3002C23.0334 25.5671 21.5429 26.5707 19.8267 27.3108L19.8265 27.3109C18.1151 28.0498 16.2854 28.42 14.335 28.42C12.3846 28.42 10.5549 28.0498 8.84345 27.3109ZM17.0139 17.0139L6.96803 21.702L11.6561 11.6561L21.702 6.96803L17.0139 17.0139Z" fill="#318CDC" stroke="white" stroke-width="0.5"/>
</svg>
