<svg width="22" height="22" viewBox="0 0 22 22" fill="none" xmlns="http://www.w3.org/2000/svg">
<g clip-path="url(#clip0_166_3054)">
<path d="M11.0001 20.949C11.385 20.9401 11.7545 20.7954 12.043 20.5404C12.3315 20.2854 12.5206 19.9366 12.5767 19.5557H9.3623C9.42004 19.947 9.61795 20.304 9.91921 20.5603C10.2205 20.8166 10.6046 20.9547 11.0001 20.949Z" fill="white"/>
<path d="M20.0754 17.1908L19.8676 17.0075C19.2781 16.4823 18.7622 15.88 18.3337 15.2169C17.8657 14.3018 17.5852 13.3024 17.5087 12.2775V9.25857C17.5062 8.89188 17.4735 8.52601 17.4109 8.16468C16.3758 7.95192 15.4459 7.38797 14.7789 6.56833C14.1118 5.74868 13.7485 4.7237 13.7504 3.66691V3.28191C13.1123 2.96791 12.4268 2.76143 11.7215 2.67079V1.90079C11.7215 1.68442 11.6355 1.47691 11.4825 1.32391C11.3295 1.17091 11.122 1.08496 10.9056 1.08496C10.6893 1.08496 10.4818 1.17091 10.3288 1.32391C10.1758 1.47691 10.0898 1.68442 10.0898 1.90079V2.70135C8.51053 2.92413 7.06516 3.71075 6.02056 4.91598C4.97595 6.1212 4.40265 7.66366 4.40648 9.25857V12.2775C4.32994 13.3024 4.04946 14.3018 3.58148 15.2169C3.16035 15.8783 2.65271 16.4805 2.07204 17.0075L1.86426 17.1908V18.9141H20.0754V17.1908Z" fill="white"/>
</g>
<defs>
<clipPath id="clip0_166_3054">
<rect width="22" height="22" fill="white"/>
</clipPath>
</defs>
</svg>
