<svg width="12" height="12" viewBox="0 0 12 12" fill="none" xmlns="http://www.w3.org/2000/svg">
<path fill-rule="evenodd" clip-rule="evenodd" d="M0.316003 2.2117C0.273023 1.11854 1.15575 0.220499 2.23028 0.264226L4.76535 0.367388C5.22807 0.386218 5.66685 0.581659 5.9943 0.914792L10.6909 5.69286C11.4103 6.42473 11.4103 7.61132 10.6909 8.34319L8.25725 10.8191C7.53786 11.5509 6.37149 11.5509 5.6521 10.8191L0.955479 6.04099C0.628024 5.70786 0.435915 5.26148 0.417406 4.79073L0.316003 2.2117ZM3.54678 3.55415C3.14446 3.96345 2.49216 3.96345 2.08984 3.55415C1.68751 3.14485 1.68751 2.48124 2.08984 2.07194C2.49216 1.66263 3.14446 1.66263 3.54678 2.07194C3.94911 2.48124 3.94911 3.14485 3.54678 3.55415Z" fill="#FD5793"/>
</svg>
