<svg width="31" height="30" viewBox="0 0 31 30" fill="none" xmlns="http://www.w3.org/2000/svg">
<mask id="path-1-outside-1_1447_7816" maskUnits="userSpaceOnUse" x="-1" y="-1" width="29" height="26" fill="black">
<rect fill="white" x="-1" y="-1" width="29" height="26"/>
<path d="M24.705 2.61091H22.4591V1.74061C22.4591 1.27897 22.2698 0.836239 21.9329 0.509812C21.5959 0.183385 21.1389 0 20.6624 0C20.1859 0 19.7289 0.183385 19.3919 0.509812C19.055 0.836239 18.8657 1.27897 18.8657 1.74061V2.61091H15.2722V1.74061C15.2722 1.27897 15.0829 0.836239 14.746 0.509812C14.409 0.183385 13.952 0 13.4755 0C12.999 0 12.542 0.183385 12.205 0.509812C11.868 0.836239 11.6788 1.27897 11.6788 1.74061V2.61091H8.08529V1.74061C8.08529 1.27897 7.89599 0.836239 7.55904 0.509812C7.22209 0.183385 6.76508 0 6.28856 0C5.81204 0 5.35503 0.183385 5.01808 0.509812C4.68113 0.836239 4.49183 1.27897 4.49183 1.74061V2.61091H2.24591C1.65026 2.61091 1.079 2.84014 0.657813 3.24817C0.236622 3.65621 0 4.20962 0 4.78667V22.1927C0 22.7698 0.236622 23.3232 0.657813 23.7312C1.079 24.1393 1.65026 24.3685 2.24591 24.3685H14.823C14.9422 24.3685 15.0564 24.3226 15.1406 24.241C15.2249 24.1594 15.2722 24.0487 15.2722 23.9333C15.2722 23.8179 15.2249 23.7072 15.1406 23.6256C15.0564 23.544 14.9422 23.4982 14.823 23.4982H2.24591C1.88885 23.4972 1.54671 23.3593 1.29423 23.1147C1.04175 22.8701 0.899432 22.5386 0.898365 22.1927V8.70303H26.0526V16.1006C26.0526 16.216 26.0999 16.3267 26.1842 16.4083C26.2684 16.4899 26.3827 16.5358 26.5018 16.5358C26.6209 16.5358 26.7352 16.4899 26.8194 16.4083C26.9036 16.3267 26.951 16.216 26.951 16.1006V4.78667C26.951 4.20962 26.7143 3.65621 26.2931 3.24817C25.872 2.84014 25.3007 2.61091 24.705 2.61091ZM19.764 1.74061C19.764 1.50979 19.8587 1.28842 20.0272 1.12521C20.1956 0.961995 20.4241 0.870303 20.6624 0.870303C20.9007 0.870303 21.1292 0.961995 21.2976 1.12521C21.4661 1.28842 21.5608 1.50979 21.5608 1.74061V4.35152C21.5608 4.58233 21.4661 4.8037 21.2976 4.96691C21.1292 5.13013 20.9007 5.22182 20.6624 5.22182C20.4241 5.22182 20.1956 5.13013 20.0272 4.96691C19.8587 4.8037 19.764 4.58233 19.764 4.35152V1.74061ZM12.5771 1.74061C12.5771 1.50979 12.6718 1.28842 12.8402 1.12521C13.0087 0.961995 13.2372 0.870303 13.4755 0.870303C13.7137 0.870303 13.9422 0.961995 14.1107 1.12521C14.2792 1.28842 14.3738 1.50979 14.3738 1.74061V4.35152C14.3738 4.58233 14.2792 4.8037 14.1107 4.96691C13.9422 5.13013 13.7137 5.22182 13.4755 5.22182C13.2372 5.22182 13.0087 5.13013 12.8402 4.96691C12.6718 4.8037 12.5771 4.58233 12.5771 4.35152V1.74061ZM5.39019 1.74061C5.39019 1.50979 5.48484 1.28842 5.65332 1.12521C5.82179 0.961995 6.0503 0.870303 6.28856 0.870303C6.52682 0.870303 6.75532 0.961995 6.9238 1.12521C7.09227 1.28842 7.18692 1.50979 7.18692 1.74061V4.35152C7.18692 4.58233 7.09227 4.8037 6.9238 4.96691C6.75532 5.13013 6.52682 5.22182 6.28856 5.22182C6.0503 5.22182 5.82179 5.13013 5.65332 4.96691C5.48484 4.8037 5.39019 4.58233 5.39019 4.35152V1.74061ZM26.0526 7.83273H0.898365V4.78667C0.899432 4.44076 1.04175 4.10931 1.29423 3.86471C1.54671 3.62012 1.88885 3.48225 2.24591 3.48121H4.49183V4.35152C4.49183 4.81315 4.68113 5.25588 5.01808 5.58231C5.35503 5.90874 5.81204 6.09212 6.28856 6.09212C6.76508 6.09212 7.22209 5.90874 7.55904 5.58231C7.89599 5.25588 8.08529 4.81315 8.08529 4.35152V3.48121H11.6788V4.35152C11.6788 4.81315 11.868 5.25588 12.205 5.58231C12.542 5.90874 12.999 6.09212 13.4755 6.09212C13.952 6.09212 14.409 5.90874 14.746 5.58231C15.0829 5.25588 15.2722 4.81315 15.2722 4.35152V3.48121H18.8657V4.35152C18.8657 4.81315 19.055 5.25588 19.3919 5.58231C19.7289 5.90874 20.1859 6.09212 20.6624 6.09212C21.1389 6.09212 21.5959 5.90874 21.9329 5.58231C22.2698 5.25588 22.4591 4.81315 22.4591 4.35152V3.48121H24.705C25.0621 3.48225 25.4042 3.62012 25.6567 3.86471C25.9092 4.10931 26.0515 4.44076 26.0526 4.78667V7.83273Z"/>
</mask>
<path d="M24.705 2.61091H22.4591V1.74061C22.4591 1.27897 22.2698 0.836239 21.9329 0.509812C21.5959 0.183385 21.1389 0 20.6624 0C20.1859 0 19.7289 0.183385 19.3919 0.509812C19.055 0.836239 18.8657 1.27897 18.8657 1.74061V2.61091H15.2722V1.74061C15.2722 1.27897 15.0829 0.836239 14.746 0.509812C14.409 0.183385 13.952 0 13.4755 0C12.999 0 12.542 0.183385 12.205 0.509812C11.868 0.836239 11.6788 1.27897 11.6788 1.74061V2.61091H8.08529V1.74061C8.08529 1.27897 7.89599 0.836239 7.55904 0.509812C7.22209 0.183385 6.76508 0 6.28856 0C5.81204 0 5.35503 0.183385 5.01808 0.509812C4.68113 0.836239 4.49183 1.27897 4.49183 1.74061V2.61091H2.24591C1.65026 2.61091 1.079 2.84014 0.657813 3.24817C0.236622 3.65621 0 4.20962 0 4.78667V22.1927C0 22.7698 0.236622 23.3232 0.657813 23.7312C1.079 24.1393 1.65026 24.3685 2.24591 24.3685H14.823C14.9422 24.3685 15.0564 24.3226 15.1406 24.241C15.2249 24.1594 15.2722 24.0487 15.2722 23.9333C15.2722 23.8179 15.2249 23.7072 15.1406 23.6256C15.0564 23.544 14.9422 23.4982 14.823 23.4982H2.24591C1.88885 23.4972 1.54671 23.3593 1.29423 23.1147C1.04175 22.8701 0.899432 22.5386 0.898365 22.1927V8.70303H26.0526V16.1006C26.0526 16.216 26.0999 16.3267 26.1842 16.4083C26.2684 16.4899 26.3827 16.5358 26.5018 16.5358C26.6209 16.5358 26.7352 16.4899 26.8194 16.4083C26.9036 16.3267 26.951 16.216 26.951 16.1006V4.78667C26.951 4.20962 26.7143 3.65621 26.2931 3.24817C25.872 2.84014 25.3007 2.61091 24.705 2.61091ZM19.764 1.74061C19.764 1.50979 19.8587 1.28842 20.0272 1.12521C20.1956 0.961995 20.4241 0.870303 20.6624 0.870303C20.9007 0.870303 21.1292 0.961995 21.2976 1.12521C21.4661 1.28842 21.5608 1.50979 21.5608 1.74061V4.35152C21.5608 4.58233 21.4661 4.8037 21.2976 4.96691C21.1292 5.13013 20.9007 5.22182 20.6624 5.22182C20.4241 5.22182 20.1956 5.13013 20.0272 4.96691C19.8587 4.8037 19.764 4.58233 19.764 4.35152V1.74061ZM12.5771 1.74061C12.5771 1.50979 12.6718 1.28842 12.8402 1.12521C13.0087 0.961995 13.2372 0.870303 13.4755 0.870303C13.7137 0.870303 13.9422 0.961995 14.1107 1.12521C14.2792 1.28842 14.3738 1.50979 14.3738 1.74061V4.35152C14.3738 4.58233 14.2792 4.8037 14.1107 4.96691C13.9422 5.13013 13.7137 5.22182 13.4755 5.22182C13.2372 5.22182 13.0087 5.13013 12.8402 4.96691C12.6718 4.8037 12.5771 4.58233 12.5771 4.35152V1.74061ZM5.39019 1.74061C5.39019 1.50979 5.48484 1.28842 5.65332 1.12521C5.82179 0.961995 6.0503 0.870303 6.28856 0.870303C6.52682 0.870303 6.75532 0.961995 6.9238 1.12521C7.09227 1.28842 7.18692 1.50979 7.18692 1.74061V4.35152C7.18692 4.58233 7.09227 4.8037 6.9238 4.96691C6.75532 5.13013 6.52682 5.22182 6.28856 5.22182C6.0503 5.22182 5.82179 5.13013 5.65332 4.96691C5.48484 4.8037 5.39019 4.58233 5.39019 4.35152V1.74061ZM26.0526 7.83273H0.898365V4.78667C0.899432 4.44076 1.04175 4.10931 1.29423 3.86471C1.54671 3.62012 1.88885 3.48225 2.24591 3.48121H4.49183V4.35152C4.49183 4.81315 4.68113 5.25588 5.01808 5.58231C5.35503 5.90874 5.81204 6.09212 6.28856 6.09212C6.76508 6.09212 7.22209 5.90874 7.55904 5.58231C7.89599 5.25588 8.08529 4.81315 8.08529 4.35152V3.48121H11.6788V4.35152C11.6788 4.81315 11.868 5.25588 12.205 5.58231C12.542 5.90874 12.999 6.09212 13.4755 6.09212C13.952 6.09212 14.409 5.90874 14.746 5.58231C15.0829 5.25588 15.2722 4.81315 15.2722 4.35152V3.48121H18.8657V4.35152C18.8657 4.81315 19.055 5.25588 19.3919 5.58231C19.7289 5.90874 20.1859 6.09212 20.6624 6.09212C21.1389 6.09212 21.5959 5.90874 21.9329 5.58231C22.2698 5.25588 22.4591 4.81315 22.4591 4.35152V3.48121H24.705C25.0621 3.48225 25.4042 3.62012 25.6567 3.86471C25.9092 4.10931 26.0515 4.44076 26.0526 4.78667V7.83273Z" fill="#318CDC"/>
<path d="M24.705 2.61091H22.4591V1.74061C22.4591 1.27897 22.2698 0.836239 21.9329 0.509812C21.5959 0.183385 21.1389 0 20.6624 0C20.1859 0 19.7289 0.183385 19.3919 0.509812C19.055 0.836239 18.8657 1.27897 18.8657 1.74061V2.61091H15.2722V1.74061C15.2722 1.27897 15.0829 0.836239 14.746 0.509812C14.409 0.183385 13.952 0 13.4755 0C12.999 0 12.542 0.183385 12.205 0.509812C11.868 0.836239 11.6788 1.27897 11.6788 1.74061V2.61091H8.08529V1.74061C8.08529 1.27897 7.89599 0.836239 7.55904 0.509812C7.22209 0.183385 6.76508 0 6.28856 0C5.81204 0 5.35503 0.183385 5.01808 0.509812C4.68113 0.836239 4.49183 1.27897 4.49183 1.74061V2.61091H2.24591C1.65026 2.61091 1.079 2.84014 0.657813 3.24817C0.236622 3.65621 0 4.20962 0 4.78667V22.1927C0 22.7698 0.236622 23.3232 0.657813 23.7312C1.079 24.1393 1.65026 24.3685 2.24591 24.3685H14.823C14.9422 24.3685 15.0564 24.3226 15.1406 24.241C15.2249 24.1594 15.2722 24.0487 15.2722 23.9333C15.2722 23.8179 15.2249 23.7072 15.1406 23.6256C15.0564 23.544 14.9422 23.4982 14.823 23.4982H2.24591C1.88885 23.4972 1.54671 23.3593 1.29423 23.1147C1.04175 22.8701 0.899432 22.5386 0.898365 22.1927V8.70303H26.0526V16.1006C26.0526 16.216 26.0999 16.3267 26.1842 16.4083C26.2684 16.4899 26.3827 16.5358 26.5018 16.5358C26.6209 16.5358 26.7352 16.4899 26.8194 16.4083C26.9036 16.3267 26.951 16.216 26.951 16.1006V4.78667C26.951 4.20962 26.7143 3.65621 26.2931 3.24817C25.872 2.84014 25.3007 2.61091 24.705 2.61091ZM19.764 1.74061C19.764 1.50979 19.8587 1.28842 20.0272 1.12521C20.1956 0.961995 20.4241 0.870303 20.6624 0.870303C20.9007 0.870303 21.1292 0.961995 21.2976 1.12521C21.4661 1.28842 21.5608 1.50979 21.5608 1.74061V4.35152C21.5608 4.58233 21.4661 4.8037 21.2976 4.96691C21.1292 5.13013 20.9007 5.22182 20.6624 5.22182C20.4241 5.22182 20.1956 5.13013 20.0272 4.96691C19.8587 4.8037 19.764 4.58233 19.764 4.35152V1.74061ZM12.5771 1.74061C12.5771 1.50979 12.6718 1.28842 12.8402 1.12521C13.0087 0.961995 13.2372 0.870303 13.4755 0.870303C13.7137 0.870303 13.9422 0.961995 14.1107 1.12521C14.2792 1.28842 14.3738 1.50979 14.3738 1.74061V4.35152C14.3738 4.58233 14.2792 4.8037 14.1107 4.96691C13.9422 5.13013 13.7137 5.22182 13.4755 5.22182C13.2372 5.22182 13.0087 5.13013 12.8402 4.96691C12.6718 4.8037 12.5771 4.58233 12.5771 4.35152V1.74061ZM5.39019 1.74061C5.39019 1.50979 5.48484 1.28842 5.65332 1.12521C5.82179 0.961995 6.0503 0.870303 6.28856 0.870303C6.52682 0.870303 6.75532 0.961995 6.9238 1.12521C7.09227 1.28842 7.18692 1.50979 7.18692 1.74061V4.35152C7.18692 4.58233 7.09227 4.8037 6.9238 4.96691C6.75532 5.13013 6.52682 5.22182 6.28856 5.22182C6.0503 5.22182 5.82179 5.13013 5.65332 4.96691C5.48484 4.8037 5.39019 4.58233 5.39019 4.35152V1.74061ZM26.0526 7.83273H0.898365V4.78667C0.899432 4.44076 1.04175 4.10931 1.29423 3.86471C1.54671 3.62012 1.88885 3.48225 2.24591 3.48121H4.49183V4.35152C4.49183 4.81315 4.68113 5.25588 5.01808 5.58231C5.35503 5.90874 5.81204 6.09212 6.28856 6.09212C6.76508 6.09212 7.22209 5.90874 7.55904 5.58231C7.89599 5.25588 8.08529 4.81315 8.08529 4.35152V3.48121H11.6788V4.35152C11.6788 4.81315 11.868 5.25588 12.205 5.58231C12.542 5.90874 12.999 6.09212 13.4755 6.09212C13.952 6.09212 14.409 5.90874 14.746 5.58231C15.0829 5.25588 15.2722 4.81315 15.2722 4.35152V3.48121H18.8657V4.35152C18.8657 4.81315 19.055 5.25588 19.3919 5.58231C19.7289 5.90874 20.1859 6.09212 20.6624 6.09212C21.1389 6.09212 21.5959 5.90874 21.9329 5.58231C22.2698 5.25588 22.4591 4.81315 22.4591 4.35152V3.48121H24.705C25.0621 3.48225 25.4042 3.62012 25.6567 3.86471C25.9092 4.10931 26.0515 4.44076 26.0526 4.78667V7.83273Z" stroke="#318CDC" stroke-width="0.6" mask="url(#path-1-outside-1_1447_7816)"/>
<g clip-path="url(#clip0_1447_7816)">
<path d="M28.7923 21.8543C28.2678 19.5572 27.4899 18.092 26.2431 17.7349C26.0016 17.6667 25.7512 17.6326 25.4996 17.6338C24.7331 17.6338 24.1282 18.0757 22.7631 18.0757C21.3979 18.0757 20.7919 17.6338 20.0265 17.6338C19.7645 17.6325 19.5035 17.6665 19.2511 17.7349C18.0026 18.092 17.2312 19.5586 16.7007 21.8543C16.1591 24.1991 16.2572 26.0518 17.3159 26.4075C18.057 26.656 18.7198 26.1421 19.3475 25.3857C20.0601 24.5241 20.9378 24.259 22.7631 24.259C24.5883 24.259 25.4318 24.5241 26.1456 25.3857C26.7727 26.1427 27.46 26.6502 28.1815 26.4119C29.3508 26.025 29.3342 24.2267 28.7923 21.8543Z" stroke="#318CDC" stroke-width="1.3" stroke-miterlimit="10"/>
<path d="M23.7898 21.7208C24.1047 21.7208 24.36 21.4735 24.36 21.1685C24.36 20.8635 24.1047 20.6162 23.7898 20.6162C23.475 20.6162 23.2197 20.8635 23.2197 21.1685C23.2197 21.4735 23.475 21.7208 23.7898 21.7208Z" fill="#318CDC"/>
<path d="M25.0437 22.9357C24.9309 22.9357 24.8206 22.9032 24.7269 22.8425C24.6331 22.7817 24.56 22.6954 24.5169 22.5944C24.4738 22.4934 24.4626 22.3823 24.4847 22.2751C24.5068 22.1679 24.5612 22.0695 24.6411 21.9923C24.721 21.9151 24.8227 21.8627 24.9334 21.8415C25.0441 21.8203 25.1588 21.8315 25.2629 21.8735C25.3671 21.9155 25.456 21.9865 25.5185 22.0775C25.5809 22.1685 25.6141 22.2754 25.6139 22.3847C25.6135 22.531 25.5533 22.6711 25.4464 22.7744C25.3395 22.8777 25.1947 22.9357 25.0437 22.9357Z" fill="#318CDC"/>
<path d="M25.0437 20.506C25.3586 20.506 25.6139 20.2587 25.6139 19.9537C25.6139 19.6486 25.3586 19.4014 25.0437 19.4014C24.7289 19.4014 24.4736 19.6486 24.4736 19.9537C24.4736 20.2587 24.7289 20.506 25.0437 20.506Z" fill="#318CDC"/>
<path d="M26.2977 21.7208C26.6125 21.7208 26.8678 21.4735 26.8678 21.1685C26.8678 20.8635 26.6125 20.6162 26.2977 20.6162C25.9828 20.6162 25.7275 20.8635 25.7275 21.1685C25.7275 21.4735 25.9828 21.7208 26.2977 21.7208Z" fill="#318CDC"/>
<path d="M20.0265 19.8428V22.4939M21.3948 21.1683H18.6582" stroke="#318CDC" stroke-width="1.3" stroke-linecap="round" stroke-linejoin="round"/>
</g>
<defs>
<clipPath id="clip0_1447_7816">
<rect width="14.595" height="14.1391" fill="white" transform="translate(15.4658 14.9824)"/>
</clipPath>
</defs>
</svg>
