<svg width="27" height="28" viewBox="0 0 27 28" fill="none" xmlns="http://www.w3.org/2000/svg">
<path d="M13.5 1.99131C10.907 1.98698 8.38719 2.85111 6.34255 4.44586H8.28409C8.52821 4.44586 8.76233 4.54283 8.93495 4.71545C9.10757 4.88807 9.20455 5.12219 9.20455 5.36631C9.20455 5.61043 9.10757 5.84455 8.93495 6.01717C8.76233 6.18979 8.52821 6.28677 8.28409 6.28677H3.98864C3.74452 6.28677 3.5104 6.18979 3.33778 6.01717C3.16516 5.84455 3.06818 5.61043 3.06818 5.36631V1.07086C3.06818 0.82674 3.16516 0.592619 3.33778 0.42C3.5104 0.247382 3.74452 0.150406 3.98864 0.150406C4.23276 0.150406 4.46688 0.247382 4.6395 0.42C4.81211 0.592619 4.90909 0.82674 4.90909 1.07086V3.23577C7.32539 1.23711 10.3642 0.145735 13.5 0.150406C20.9557 0.150406 27 6.19472 27 13.6504C27 21.1061 20.9557 27.1504 13.5 27.1504C6.04432 27.1504 0 21.1061 0 13.6504C0 12.9607 0.0527727 12.5999 0.141136 11.9973L0.143591 11.9825C0.181213 11.7429 0.311888 11.5279 0.50721 11.3841C0.702533 11.2403 0.946716 11.1794 1.18668 11.2146C1.42665 11.2499 1.64301 11.3784 1.78872 11.5723C1.93444 11.7662 1.99774 12.0098 1.96486 12.2501V12.2525C1.87895 12.8416 1.84091 13.0957 1.84091 13.6504C1.84091 15.9563 2.5247 18.2105 3.80582 20.1278C5.08694 22.0452 6.90784 23.5395 9.03826 24.422C11.1687 25.3044 13.5129 25.5353 15.7746 25.0855C18.0362 24.6356 20.1137 23.5252 21.7442 21.8946C23.3748 20.2641 24.4852 18.1866 24.9351 15.925C25.3849 13.6633 25.154 11.3191 24.2716 9.18866C23.3891 7.05824 21.8948 5.23734 19.9774 3.95622C18.0601 2.67511 15.806 1.99131 13.5 1.99131ZM14.1136 5.97995C14.1136 5.73583 14.0167 5.50171 13.844 5.32909C13.6714 5.15647 13.4373 5.05949 13.1932 5.05949C12.9491 5.05949 12.7149 5.15647 12.5423 5.32909C12.3697 5.50171 12.2727 5.73583 12.2727 5.97995V13.9572C12.2727 14.4653 12.6851 14.8777 13.1932 14.8777H16.875C17.1191 14.8777 17.3532 14.7807 17.5259 14.6081C17.6985 14.4355 17.7955 14.2013 17.7955 13.9572C17.7955 13.7131 17.6985 13.479 17.5259 13.3064C17.3532 13.1337 17.1191 13.0368 16.875 13.0368H14.1136V5.97995Z" fill="#318CDC"/>
</svg>
