<svg width="27" height="19" viewBox="0 0 27 19" fill="none" xmlns="http://www.w3.org/2000/svg">
<path d="M17.125 18.5625H0.8125V13.125C1.77391 13.125 2.69594 12.7431 3.37576 12.0633C4.05558 11.3834 4.4375 10.4614 4.4375 9.5C4.4375 8.53859 4.05558 7.61656 3.37576 6.93674C2.69594 6.25692 1.77391 5.875 0.8125 5.875V0.4375H17.125V4.96875H18.9375V0.4375H26.1875V5.875C25.2261 5.875 24.3041 6.25692 23.6242 6.93674C22.9444 7.61656 22.5625 8.53859 22.5625 9.5C22.5625 10.4614 22.9444 11.3834 23.6242 12.0633C24.3041 12.7431 25.2261 13.125 26.1875 13.125V18.5625H18.9375V14.0312H17.125V18.5625ZM17.125 6.78125V12.2188H18.9375V6.78125H17.125Z" fill="white"/>
</svg>
