<svg width="28" height="28" viewBox="0 0 28 28" fill="none" xmlns="http://www.w3.org/2000/svg">
<path d="M18.8861 16.5346L15.003 13.6223V7.68997C15.003 7.09348 14.5208 6.61133 13.9243 6.61133C13.3279 6.61133 12.8457 7.09348 12.8457 7.68997V14.1617C12.8457 14.5015 13.0054 14.8219 13.2772 15.0246L17.5916 18.2605C17.7858 18.4061 18.0123 18.4762 18.2377 18.4762C18.5667 18.4762 18.8903 18.3285 19.1017 18.0437C19.4599 17.568 19.3628 16.8917 18.8861 16.5346Z" fill="#318CDC"/>
<path d="M13.925 0.150391C6.24629 0.150391 0 6.39668 0 14.0754C0 21.7541 6.24629 28.0004 13.925 28.0004C21.6037 28.0004 27.85 21.7541 27.85 14.0754C27.85 6.39668 21.6037 0.150391 13.925 0.150391ZM13.925 25.8432C7.43709 25.8432 2.15723 20.5633 2.15723 14.0754C2.15723 7.58748 7.43709 2.30762 13.925 2.30762C20.414 2.30762 25.6928 7.58748 25.6928 14.0754C25.6928 20.5633 20.4129 25.8432 13.925 25.8432Z" fill="#318CDC"/>
</svg>
