<svg width="19" height="19" viewBox="0 0 19 19" fill="none" xmlns="http://www.w3.org/2000/svg">
<path d="M6.22399 0H1.53438C1.16048 0 0.858398 0.307958 0.858398 0.689137V5.5131C0.858398 5.70261 1.01049 5.85767 1.19639 5.85767H2.21036C2.39625 5.85767 2.54835 5.70261 2.54835 5.5131V1.72284H6.22399C6.40988 1.72284 6.56198 1.56779 6.56198 1.37827V0.344569C6.56198 0.155056 6.40988 0 6.22399 0ZM18.4339 12.4045H17.4199C17.234 12.4045 17.0819 12.5595 17.0819 12.749V16.5393H13.4063C13.2204 16.5393 13.0683 16.6943 13.0683 16.8839V17.9176C13.0683 18.1071 13.2204 18.2621 13.4063 18.2621H18.0959C18.4698 18.2621 18.7719 17.9542 18.7719 17.573V12.749C18.7719 12.5595 18.6198 12.4045 18.4339 12.4045ZM6.22399 16.5393H2.54835V12.749C2.54835 12.5595 2.39625 12.4045 2.21036 12.4045H1.19639C1.01049 12.4045 0.858398 12.5595 0.858398 12.749V17.573C0.858398 17.9542 1.16048 18.2621 1.53438 18.2621H6.22399C6.40988 18.2621 6.56198 18.1071 6.56198 17.9176V16.8839C6.56198 16.6943 6.40988 16.5393 6.22399 16.5393ZM18.0959 0H13.4063C13.2204 0 13.0683 0.155056 13.0683 0.344569V1.37827C13.0683 1.56779 13.2204 1.72284 13.4063 1.72284H17.0819V5.5131C17.0819 5.70261 17.234 5.85767 17.4199 5.85767H18.4339C18.6198 5.85767 18.7719 5.70261 18.7719 5.5131V0.689137C18.7719 0.307958 18.4698 0 18.0959 0Z" fill="white"/>
</svg>
