<svg width="28" height="26" viewBox="0 0 28 26" fill="none" xmlns="http://www.w3.org/2000/svg">
<path d="M6.62034 0.726202C8.76719 0.726202 10.5102 2.32917 10.5102 4.30353C10.5102 6.27789 8.76719 7.88086 6.62034 7.88086C4.47349 7.88086 2.73047 6.27789 2.73047 4.30353C2.73047 2.32917 4.47349 0.726202 6.62034 0.726202Z" stroke="#318CDC" stroke-width="1.2" stroke-miterlimit="10" stroke-linecap="round" stroke-linejoin="round"/>
<path d="M21.3137 0.726202C19.1668 0.726202 17.4238 2.32917 17.4238 4.30353C17.4238 6.27789 19.1668 7.88086 21.3137 7.88086C23.4606 7.88086 25.2036 6.27789 25.2036 4.30353C25.2036 2.32917 23.4606 0.726202 21.3137 0.726202Z" stroke="#318CDC" stroke-width="1.2" stroke-miterlimit="10" stroke-linecap="round" stroke-linejoin="round"/>
<path d="M13.9674 11.0622C15.8758 11.0622 17.4251 12.487 17.4251 14.2421C17.4251 15.997 15.8758 17.4219 13.9674 17.4219C12.0591 17.4219 10.5098 15.997 10.5098 14.2421C10.5098 12.487 12.0591 11.0622 13.9674 11.0622Z" stroke="#318CDC" stroke-width="1.2" stroke-miterlimit="10" stroke-linecap="round" stroke-linejoin="round"/>
<path d="M18.2886 21.3963C18.2886 19.2011 16.3536 17.4215 13.9666 17.4215H13.9657C11.5792 17.4215 9.64453 19.2007 9.64453 21.3955V24.5762H18.2886V21.3963Z" stroke="#318CDC" stroke-width="1.2" stroke-miterlimit="10" stroke-linecap="round" stroke-linejoin="round"/>
<path d="M9.64417 24.5762H1V13.0492C1 10.1954 3.51561 7.88197 6.61874 7.88197C9.18072 7.88197 11.3422 9.45891 12.0181 11.615" stroke="#318CDC" stroke-width="1.2" stroke-miterlimit="10" stroke-linecap="round" stroke-linejoin="round"/>
<path d="M18.288 24.5762H26.9322V13.0492C26.9322 10.1954 24.4166 7.88197 21.3134 7.88197C18.7515 7.88197 16.59 9.45891 15.9141 11.615" stroke="#318CDC" stroke-width="1.2" stroke-miterlimit="10" stroke-linecap="round" stroke-linejoin="round"/>
</svg>
