<svg width="29" height="27" viewBox="0 0 29 27" fill="none" xmlns="http://www.w3.org/2000/svg">
<path d="M8.52374 0.805039H8.55215L8.58045 0.80256C8.71824 0.790493 8.84928 0.829339 8.94499 0.899672C9.0271 0.960011 9.07345 1.03521 9.09142 1.10727V26.35H0.65V1.10727C0.667973 1.03521 0.714324 0.96001 0.796432 0.899672C0.892139 0.82934 1.02318 0.790493 1.16097 0.80256L1.18927 0.805039H1.21768H8.52374Z" stroke="#318CDC" stroke-width="1.3"/>
<path d="M16.8843 26.3497V10.6153L18.1353 10.3677L24.6489 26.1764L28.14 24.9109L21.6387 9.16336L16.8843 26.3497ZM16.8843 26.3497H12.3395V5.27891H16.5602C16.6631 5.27891 16.7519 5.31698 16.8093 5.36969C16.8648 5.4207 16.8843 5.47747 16.8843 5.52374V9.63102V10.5542L17.7534 10.243L21.1988 9.00921C21.2427 8.99416 21.2907 8.98665 21.3399 8.98799C21.3897 8.98936 21.4375 8.99974 21.48 9.01731L21.7281 8.41654L21.48 9.01732C21.5225 9.03487 21.5573 9.05852 21.5839 9.08448C21.6104 9.11026 21.628 9.13749 21.6386 9.16319L16.8843 26.3497Z" stroke="#318CDC" stroke-width="1.3"/>
</svg>
