<svg width="28" height="26" viewBox="0 0 28 26" fill="none" xmlns="http://www.w3.org/2000/svg">
<path d="M15.3449 23.2406C15.3449 23.4724 15.2527 23.6948 15.0886 23.8587C14.9246 24.0227 14.702 24.1148 14.4699 24.1148H0.875C0.642936 24.1148 0.420376 24.0227 0.256282 23.8587C0.0921873 23.6948 0 23.4724 0 23.2406C0 23.0087 0.0921873 22.7864 0.256282 22.6224C0.420376 22.4585 0.642936 22.3664 0.875 22.3664H14.4699C14.702 22.3664 14.9246 22.4585 15.0886 22.6224C15.2527 22.7864 15.3449 23.0087 15.3449 23.2406ZM14.4699 14.9611H0.875C0.642936 14.9611 0.420376 15.0532 0.256282 15.2171C0.0921873 15.3811 0 15.6034 0 15.8353C0 16.0671 0.0921873 16.2895 0.256282 16.4534C0.420376 16.6173 0.642936 16.7094 0.875 16.7094H14.4699C14.702 16.7094 14.9246 16.6173 15.0886 16.4534C15.2527 16.2895 15.3449 16.0671 15.3449 15.8353C15.3449 15.6034 15.2527 15.3811 15.0886 15.2171C14.9246 15.0532 14.702 14.9611 14.4699 14.9611ZM0.875 1.89876H27.125C27.3571 1.89876 27.5796 1.80666 27.7437 1.64272C27.9078 1.47878 28 1.25643 28 1.02458C28 0.792728 27.9078 0.570375 27.7437 0.406434C27.5796 0.242492 27.3571 0.150391 27.125 0.150391H0.875C0.642936 0.150391 0.420376 0.242492 0.256282 0.406434C0.0921873 0.570375 0 0.792728 0 1.02458C0 1.25643 0.0921873 1.47878 0.256282 1.64272C0.420376 1.80666 0.642936 1.89876 0.875 1.89876ZM28 19.5379C28 19.6889 27.9608 19.8374 27.8863 19.9688C27.8119 20.1002 27.7046 20.2101 27.5749 20.2877L19.6631 25.026C19.5303 25.1055 19.3788 25.1484 19.224 25.1503C19.0692 25.1522 18.9167 25.1131 18.782 25.0368C18.6473 24.9606 18.5352 24.85 18.4573 24.7164C18.3793 24.5827 18.3382 24.4308 18.3382 24.2762V14.7996C18.3382 14.6449 18.3793 14.493 18.4573 14.3594C18.5352 14.2258 18.6473 14.1152 18.782 14.039C18.9167 13.9627 19.0692 13.9236 19.224 13.9255C19.3788 13.9274 19.5303 13.9703 19.6631 14.0498L27.5749 18.7881C27.7045 18.8657 27.8118 18.9756 27.8863 19.107C27.9608 19.2384 28 19.3869 28 19.5379ZM25.4231 19.5379L20.0882 16.3429V22.733L25.4231 19.5379ZM27.125 7.55573H0.875C0.642936 7.55573 0.420376 7.64783 0.256282 7.81177C0.0921873 7.97571 0 8.19807 0 8.42991C0 8.66176 0.0921873 8.88412 0.256282 9.04806C0.420376 9.212 0.642936 9.3041 0.875 9.3041H27.125C27.3571 9.3041 27.5796 9.212 27.7437 9.04806C27.9078 8.88412 28 8.66176 28 8.42991C28 8.19807 27.9078 7.97571 27.7437 7.81177C27.5796 7.64783 27.3571 7.55573 27.125 7.55573Z" fill="#318CDC"/>
</svg>
