<svg width="32" height="28" viewBox="0 0 32 28" fill="none" xmlns="http://www.w3.org/2000/svg">
<path d="M22.0636 19.4394C21.817 19.1885 21.4213 19.1927 21.1797 19.4487L21.1619 19.4676C20.9204 19.7237 20.9244 20.1347 21.171 20.3857C21.2926 20.5095 21.4506 20.5712 21.6084 20.5712C21.7704 20.5712 21.9324 20.5061 22.0549 20.3764L22.0726 20.3576C22.3142 20.1014 22.3101 19.6904 22.0636 19.4394Z" fill="#318CDC"/>
<path d="M28.7856 12.6343H27.1247V10.909C27.1247 10.5504 26.8449 10.2598 26.4997 10.2598C26.1546 10.2598 25.8747 10.5504 25.8747 10.909V12.6343H24.2139C23.8687 12.6343 23.5889 12.925 23.5889 13.2836C23.5889 13.6421 23.8687 13.9328 24.2139 13.9328H25.8747V15.6581C25.8747 16.0167 26.1546 16.3074 26.4997 16.3074C26.8449 16.3074 27.1247 16.0167 27.1247 15.6581V13.9328H28.7856C29.1308 13.9328 29.4106 13.6421 29.4106 13.2836C29.4106 12.925 29.1308 12.6343 28.7856 12.6343Z" fill="#318CDC"/>
<path d="M28.5434 7.83497C27.9597 3.35322 24.3529 0 20.0719 0C17.9108 0 15.8892 0.836813 14.3125 2.37066C12.7358 0.836813 10.7142 0 8.5532 0C3.83695 0 0 4.0807 0 9.09658C0 10.0876 0.278313 11.1984 0.832002 12.4245H0.625001C0.279813 12.4245 0 12.7152 0 13.0738C0 13.4324 0.279813 13.723 0.625001 13.723H1.49763C2.66494 15.776 4.51095 18.1104 7.02808 20.7104C10.4393 24.2339 13.8983 26.9906 13.9329 27.018C14.0449 27.107 14.1787 27.1515 14.3125 27.1515C14.4463 27.1515 14.5801 27.107 14.6922 27.018C14.7185 26.9971 20.9502 21.451 23.882 18.5796C24.1332 18.3336 24.1448 17.9227 23.908 17.6619C23.6712 17.401 23.2757 17.3888 23.0245 17.6348C20.7886 19.8247 15.1382 24.9997 14.3126 25.6781C13.3315 24.8717 10.6001 22.5699 7.90052 19.7804C5.73926 17.5471 4.08476 15.5118 2.96619 13.723H8.56158C8.84039 13.723 9.08545 13.5312 9.16233 13.2529L10.2543 9.29882L13.2783 19.3633C13.3598 19.6344 13.6015 19.8191 13.875 19.8191C14.1484 19.8191 14.3901 19.6344 14.4715 19.3633L16.1462 13.788H18.9365C19.2817 13.788 19.5615 13.4974 19.5615 13.1388C19.5615 12.7802 19.2817 12.4895 18.9365 12.4895H15.6865C15.4131 12.4895 15.1713 12.6742 15.0899 12.9454L13.8748 16.9905L10.8256 6.8424C10.7434 6.56861 10.4985 6.38267 10.2218 6.38663C9.94571 6.38994 9.70439 6.58108 9.62821 6.85681L8.09052 12.4246H2.2265C1.58044 11.1575 1.25 10.0408 1.25 9.09658C1.25 4.79669 4.5262 1.29849 8.5532 1.29849C10.5772 1.29849 12.4595 2.16277 13.8532 3.73199C13.9715 3.86522 14.138 3.94099 14.3125 3.94099C14.487 3.94099 14.6536 3.86522 14.7719 3.73199C16.1656 2.16277 18.0478 1.29849 20.0719 1.29849C23.5535 1.29849 26.5136 3.90677 27.2172 7.47444C26.9824 7.44256 26.7431 7.42588 26.5 7.42588C23.4673 7.42588 21 9.9889 21 13.1392C21 16.2896 23.4673 18.8526 26.5 18.8526C29.5327 18.8526 32 16.2896 32 13.1392C32.0001 10.7386 30.5672 8.67931 28.5434 7.83497ZM26.5001 17.5541C24.1566 17.5541 22.25 15.5736 22.25 13.1392C22.25 10.7049 24.1566 8.72437 26.5001 8.72437C28.8435 8.72437 30.7501 10.7049 30.7501 13.1392C30.7501 15.5736 28.8435 17.5541 26.5001 17.5541Z" fill="#318CDC"/>
</svg>
