<svg width="192" height="192" viewBox="0 0 192 192" fill="none" xmlns="http://www.w3.org/2000/svg">
<path opacity="0.95" d="M67.6797 126.951H8.94338C4.30325 126.951 0.541016 123.136 0.541016 118.431V58.8794C0.541016 54.1748 4.30325 50.3604 8.94338 50.3604H67.6797C72.3198 50.3604 76.082 54.1748 76.082 58.8794V118.431C76.0806 123.136 72.3198 126.951 67.6797 126.951Z" fill="#E9F2FA"/>
<path d="M56.1467 109.114H20.4746V111.213H56.1467V109.114Z" fill="#318CDC" fill-opacity="0.32"/>
<path d="M50.901 114.36H25.7207V116.459H50.901V114.36Z" fill="#318CDC" fill-opacity="0.32"/>
<path opacity="0.95" d="M181.445 192.001H96.6179C91.0704 192.001 86.5723 187.557 86.5723 182.073V80.2237C86.5723 74.7413 91.069 70.2959 96.6179 70.2959H181.445C186.992 70.2959 191.49 74.7399 191.49 80.2237V182.074C191.489 187.557 186.992 192.001 181.445 192.001Z" fill="#E9F2FA"/>
<path d="M142.463 141.919H134.195V143.447H142.463V141.919Z" fill="#318CDC"/>
<path d="M150.91 155.926H102.807V158.885H150.91V155.926Z" fill="#318CDC" fill-opacity="0.32"/>
<path d="M141.706 170.131H102.807V173.09H141.706V170.131Z" fill="#318CDC" fill-opacity="0.32"/>
<path d="M125.611 163.029H102.807V165.988H125.611V163.029Z" fill="#318CDC" fill-opacity="0.32"/>
<path d="M163.494 82.0479V83.5426H172.309V91.8016H173.806V82.0479H163.494ZM103.633 91.8016H105.13V83.5426H113.945V82.0479H103.633V91.8016ZM172.31 134.417V142.679H163.495V144.174H173.808V134.417H172.31ZM105.13 134.417H103.633V144.174H113.945V142.679H105.13V134.417Z" fill="#318CDC"/>
<path d="M169.144 173.308C164.283 173.308 160.328 169.36 160.328 164.507C160.328 159.654 164.283 155.706 169.144 155.706C174.006 155.706 177.961 159.654 177.961 164.507C177.961 169.36 174.006 173.308 169.144 173.308ZM169.144 157.411C165.224 157.411 162.035 160.595 162.035 164.508C162.035 168.422 165.224 171.606 169.144 171.606C173.064 171.606 176.254 168.422 176.254 164.508C176.254 160.594 173.064 157.411 169.144 157.411Z" fill="#318CDC"/>
<path d="M168.583 167.973L164.578 163.974L165.784 162.769L168.583 165.563L172.506 161.646L173.712 162.851L168.583 167.973Z" fill="#318CDC"/>
<path d="M57.9304 80.0912C56.2396 75.6273 52.178 73.5762 50.2606 72.9377C49.5776 72.7114 48.359 72.3135 47.074 71.8984C44.758 71.1518 42.2284 70.3389 42.2284 70.3389H34.2395C34.2395 70.3389 31.473 71.2642 28.5333 72.2934C28.5333 72.2962 28.5304 72.2963 28.5304 72.2963C25.8217 73.2447 22.9701 74.2781 22.007 74.761C19.9986 75.7613 16.62 82.9177 15.937 83.7379C15.5847 84.1602 14.0167 86.9478 12.4746 90.0612H21.0815C21.9911 88.5016 22.6914 87.2923 22.6914 87.2923C22.6914 87.2923 23.2358 88.4843 23.8956 90.0612H51.4691C51.9051 88.2306 52.1766 85.923 52.1766 85.923C52.1766 85.923 53.6537 87.9279 55.265 90.0612H63.2121C61.2816 86.8238 58.8833 82.6107 57.9304 80.0912Z" fill="#5B5E66"/>
<path d="M39.1862 48.4221C39.1862 48.4221 45.4338 49.4051 44.4823 59.1617C43.5308 68.9184 38.0181 68.1198 37.6485 68.1098C37.2803 68.0997 32.1141 68.287 31.7113 56.3741C31.7113 56.3741 31.5351 47.5645 39.1862 48.4221Z" fill="#EEA886"/>
<path d="M44.5796 56.4066C44.5796 56.4066 45.264 55.6772 45.5152 56.4152C45.7664 57.1532 44.5825 60.4467 44.5392 60.6009C44.5392 60.6009 44.4135 60.8878 44.2504 60.7292C44.0858 60.5721 44.5796 56.4066 44.5796 56.4066Z" fill="#EEA886"/>
<path d="M31.879 56.2827C31.879 56.2827 31.209 55.5404 30.9433 56.274C30.6777 57.0077 31.788 60.3228 31.8386 60.4785C31.8386 60.4785 31.9584 60.7668 32.1244 60.6126C32.2919 60.4569 31.879 56.2827 31.879 56.2827Z" fill="#EEA886"/>
<path d="M44.5743 57.9023L43.6805 59.0958C43.6805 59.0958 43.705 56.4783 43.5621 56.0689C43.4192 55.6581 43.1997 54.4056 43.0784 54.1101C42.9586 53.8146 37.7145 52.3473 33.0811 54.5382C33.0811 54.5382 33.2847 56.4192 32.8414 56.5878C32.3981 56.755 32.6147 59.6522 32.6147 59.6522L31.8798 58.8234C31.8798 58.8234 30.755 51.3167 31.0322 50.5341C31.3095 49.7514 32.196 45.0482 41.6995 47.8401C41.6995 47.8401 44.6623 47.2131 45.2572 49.2556C45.8521 51.298 44.5743 57.9023 44.5743 57.9023Z" fill="#434343"/>
<path d="M43.0031 70.163C43.0002 70.1544 42.2017 69.7695 42.2017 69.7695C41.8119 68.9004 42.1021 65.235 42.1021 65.235C42.1021 65.235 34.145 63.2127 34.3731 64.7593C34.6012 66.3059 33.6873 69.8963 33.6873 69.8963L29.6055 71.92C29.6055 71.92 33.9544 83.5778 38.9531 82.0731C43.9517 80.5697 45.8389 71.4992 45.8389 71.4992L43.0031 70.163Z" fill="#EEA886"/>
<path d="M34.4883 66.4771C34.4883 66.4771 35.7704 68.1289 37.9954 68.1289C39.4595 68.1289 40.5092 67.7196 41.9675 66.2998C41.9675 66.2998 41.3351 68.9952 38.0055 69.246C38.0041 69.246 35.59 69.553 34.4883 66.4771Z" fill="#A77860"/>
<path opacity="0.95" d="M136.177 55.6068H93.6235C89.7287 55.6068 86.5723 52.4914 86.5723 48.6474V12.2055C86.5723 8.36144 89.7287 5.24609 93.6235 5.24609H136.177C140.072 5.24609 143.228 8.36144 143.228 12.2055V48.6474C143.229 52.4914 140.072 55.6068 136.177 55.6068Z" fill="#E9F2FA"/>
<path d="M116.856 46.1621H112.418V46.9822H116.856V46.1621Z" fill="#318CDC"/>
<path d="M118.65 0.964985C118.65 0.964985 122.225 2.92525 121.09 7.74519C119.955 12.5651 119.524 13.2008 120.446 15.1481C121.369 17.0954 122.179 25.2564 121.196 26.7497C120.212 28.2429 110.238 19.4679 109.131 12.4469C108.022 5.42603 110.517 2.44527 111.402 1.33253C112.287 0.219794 115.497 -0.825198 118.65 0.964985Z" fill="#344052"/>
<path d="M125.369 40.799H121.541C121.356 38.9137 121.184 37.6021 121.22 37.4075C121.277 37.0875 117.411 26.9648 117.05 26.1273C116.687 25.2928 115.27 23.0471 115.085 20.9326C114.898 18.8181 117.66 17.9648 117.66 17.9648C121.388 18.6308 122.65 23.7793 122.65 23.7793C122.65 23.7793 124.215 34.2177 125.006 37.1553C125.21 37.9077 125.319 39.238 125.369 40.799Z" fill="#EEA886"/>
<path d="M123.441 26.2929L117.74 28.6928C117.74 28.6928 112.501 15.7118 116.893 17.1619C121.271 18.6061 123.24 21.3216 123.441 26.2929Z" fill="#FD5793"/>
<path d="M122.171 32.4042C122.005 33.6928 121.324 38.2576 121.475 39.49C121.501 39.6933 121.585 40.1617 121.712 40.7973H107.967C108.332 39.4943 108.665 38.3412 108.866 37.671C109.533 35.4614 108.895 34.869 108.557 33.1004C108.426 32.4086 107.964 31.094 107.461 29.608C107.292 29.1122 107.119 28.5947 106.953 28.0758C106.348 26.2049 106.068 24.2922 105.895 23.178C105.066 17.8997 109.132 17.3924 109.132 17.3924C110.644 17.1142 113.283 16.2998 113.283 16.2998L117.418 17.1589C117.418 17.1589 117.812 17.3059 118.386 17.7296C118.386 17.7296 118.388 17.7296 118.388 17.7325C118.664 17.9358 118.983 18.2024 119.318 18.5469C119.77 19.0096 120.67 20.3356 121.568 21.7929C121.842 22.2397 122.118 22.6981 122.378 23.1492C123.218 24.6021 123.816 25.7725 123.797 27.0942C123.781 28.3958 122.337 31.1157 122.171 32.4042Z" fill="#FD5793"/>
<path d="M117.417 17.1622C117.417 17.1622 120.008 21.5814 119.045 21.9115C118.081 22.2415 113.003 21.1259 111.02 16.9503C111.02 16.9503 114.352 15.4383 117.417 17.1622Z" fill="#EEA886"/>
<path d="M117.048 19.1795C117.048 19.1795 114.747 20.151 112.663 16.9511C112.663 16.9511 113.224 13.3174 112.04 11.2159C110.856 9.11438 117.213 13.7354 117.213 13.7354C117.213 13.7354 117.11 14.1693 117.004 14.8078C116.949 15.135 116.892 15.5155 116.851 15.9205C116.814 16.2578 116.787 16.6109 116.775 16.9626C116.748 17.7813 116.807 18.5928 117.048 19.1795Z" fill="#EEA886"/>
<path d="M111.334 24.1318C110.86 26.5649 107.461 29.6119 107.461 29.6119C107.294 29.1147 107.121 28.5986 106.953 28.0812C109.299 26.5865 111.334 24.1318 111.334 24.1318Z" fill="#393D63"/>
<path d="M110.479 26.067C110.264 26.9534 109.272 35.9317 109.381 36.2387C109.444 36.4146 109.923 38.4916 110.404 40.7992H105.967C105.512 39.3117 105.244 38.0765 105.309 37.3774C105.592 34.3491 104.564 24.6948 104.564 24.6948C104.564 24.6948 103.643 18.8543 108.497 18.125C108.497 18.125 111.364 18.5012 111.538 20.6157C111.712 22.7316 110.695 25.1834 110.479 26.067Z" fill="#EEA886"/>
<path d="M104.207 27.3066L110.231 28.7119C110.231 28.7119 115.01 19.4497 110.706 17.7575C106.169 15.9759 103.12 22.2546 104.207 27.3066Z" fill="#FD5793"/>
<path d="M118.097 1.48064C118.097 1.48064 123.333 3.39911 120.015 12.4178C116.697 21.4379 109.922 10.8784 110.946 5.33631C111.968 -0.205759 118.097 1.48064 118.097 1.48064Z" fill="#EEA987"/>
<path d="M120.819 6.96304C120.819 6.96304 118.055 9.4249 113.621 9.54021C113.621 9.54021 112.584 12.0626 112.417 12.8366C112.417 12.8366 108.036 5.32708 113.072 1.5334C118.11 -2.25885 122.678 5.39051 120.819 6.96304Z" fill="#344052"/>
<path d="M114.21 10.0765C114.207 9.40915 113.867 7.87265 112.855 8.25029C111.843 8.62793 112.75 11.7658 113.417 11.6072C113.417 11.6072 114.217 11.6577 114.21 10.0765Z" fill="#EEA987"/>
<path d="M116.779 16.8099C114.318 16.131 113.367 13.7888 113.338 13.7109C115.339 16.2924 116.848 15.9206 116.848 15.9206C116.812 16.2578 116.809 16.4683 116.779 16.8099Z" fill="#A77860"/>
<path d="M128.15 14.4751V15.2779H132.882V19.7116H133.686V14.4751H128.15ZM96.0156 19.7101H96.8199V15.2765H101.551V14.4736H96.0156V19.7101ZM132.882 42.5876V47.0227H128.15V47.8255H133.686V42.5876H132.882ZM96.8199 42.5876H96.0156V47.8255H101.551V47.0227H96.8199V42.5876Z" fill="#318CDC"/>
<path d="M41.2825 100.706H35.3555V101.802H41.2825V100.706Z" fill="#318CDC"/>
<path d="M56.0839 58.3809V59.4518H62.4051V65.3744H63.4779V58.3809H56.0839ZM13.1621 65.3744H14.2364V59.4518H20.5576V58.3809H13.1636V65.3744H13.1621ZM62.4051 95.93V101.854H56.0839V102.925H63.4779V95.9286H62.4051V95.93ZM14.2364 95.93H13.1621V102.926H20.5562V101.855H14.2349V95.93H14.2364Z" fill="#318CDC"/>
<path d="M168.739 133.731H163.726C163.635 133.531 163.56 133.356 163.5 133.216C162.012 129.709 154.344 121.668 154.344 121.668C154.344 121.668 154.344 121.672 154.344 121.685C154.344 121.685 154.34 121.69 154.34 121.694C154.34 121.694 154.34 121.698 154.34 121.703C154.335 121.716 154.331 121.724 154.327 121.737C154.322 121.755 154.318 121.776 154.309 121.804C154.305 121.817 154.301 121.834 154.301 121.847C154.296 121.86 154.292 121.868 154.288 121.881C153.973 123.053 152.429 128.891 151.657 133.729H117.729C117.651 133.281 117.559 132.853 117.455 132.458C117.144 131.256 116.935 130.067 116.801 128.956C116.796 128.899 116.788 128.846 116.783 128.79C116.757 128.585 116.736 128.381 116.718 128.18C116.427 125.14 116.645 122.81 116.662 122.573C116.567 122.778 115.881 125.287 114.983 128.385C114.489 130.084 113.932 131.961 113.377 133.729H105.365L115.419 104.774C115.641 104.599 118.25 103.341 120.153 102.434C122.095 101.51 124.439 100.156 126.555 98.9967C127.638 98.4043 128.659 97.8681 129.544 97.4631L129.68 97.4026V97.3982C131.141 96.7323 132.114 96.2913 132.114 96.2913C132.114 96.2913 132.114 96.2913 132.119 96.2913C132.153 96.2869 132.384 96.2653 132.751 96.2307C134.793 96.0347 141.13 95.4423 143.249 95.3198C143.424 95.3068 143.573 95.3025 143.685 95.2982C143.782 95.2938 143.856 95.2938 143.899 95.2982C144.165 95.3155 145.474 95.7681 147.19 96.4224C147.255 96.4441 147.321 96.47 147.386 96.4959C147.47 96.5262 147.548 96.5565 147.63 96.5868C147.779 96.643 147.932 96.7006 148.083 96.7612C148.39 96.8837 148.707 97.0047 149.026 97.1316C149.136 97.1748 149.249 97.2181 149.363 97.2627C152.796 98.622 156.732 100.307 157.666 100.979C158.286 101.418 160.21 105.039 162.44 109.517C164.838 117.194 167.775 128.268 168.739 133.731Z" fill="white"/>
<path d="M143.84 94.3179C143.749 98.8712 134.92 101.362 134.92 101.362C134.92 101.362 131.227 96.7394 132.109 96.2969C132.455 96.1225 132.595 95.4336 132.639 94.6595C132.679 93.923 132.631 93.1101 132.588 92.5941C132.562 92.2726 132.538 92.0651 132.538 92.0651C132.538 92.0651 133.8 90.7361 135.404 89.1535C138.209 86.3846 142.064 82.8389 142.07 84.25C142.07 84.3249 142.06 84.4143 142.037 84.5181C141.36 87.6905 143.84 94.3179 143.84 94.3179Z" fill="#EEA886"/>
<path d="M140.439 87.6475C140.422 87.6748 140.046 88.2341 139.407 89.0369C138.051 90.7392 135.503 93.5355 132.638 94.6583C132.678 93.9218 132.631 93.1088 132.587 92.5928C132.294 92.5856 132.001 92.551 131.711 92.4876C132.496 91.1183 133.631 89.6812 133.631 89.6812L135.404 89.1523L140.439 87.6475Z" fill="#A77860"/>
<path d="M142.135 84.3074C141.371 85.9664 140.646 87.1685 140.44 87.6456C140.44 87.6456 140.44 87.6456 140.44 87.647C140.305 87.9569 139.941 88.4628 139.409 89.0351C137.953 90.6004 135.249 92.6644 132.589 92.5924C132.296 92.5852 132.003 92.5506 131.713 92.4871C130.639 92.2536 129.371 91.7549 128.673 90.3914C123.165 79.6243 127.153 70.819 127.153 70.819C127.153 70.819 142.217 66.567 144.573 71.0929C146.227 74.2682 143.929 80.4099 142.135 84.3074Z" fill="#EEA886"/>
<path d="M127.156 70.8209C127.156 70.8209 125.757 70.743 125.411 68.0952C125.069 65.4792 125.761 64.7541 125.761 64.7541C125.761 64.7541 131.98 62.1554 134.213 61.8181C136.447 61.4808 141.938 61.1551 143.224 62.6252C143.224 62.6252 146.352 61.9002 147.204 67.082C148.555 75.3035 142.598 83.2873 142.598 83.2873C142.598 83.2873 142.648 77.9153 141.462 77.2047C140.275 76.4927 139.251 78.1848 139.251 78.1848L136.824 78.6187C136.824 78.6187 140.51 70.6724 136.087 70.3784C131.663 70.0843 129.687 71.2821 127.156 70.8209Z" fill="#2C303D"/>
<path d="M139.312 76.0443C139.543 73.6776 143.83 72.7738 143.543 75.2544C143.256 77.735 141.145 80.1176 140.17 80.034C139.194 79.9504 139.136 77.8474 139.312 76.0443Z" fill="#EEA886"/>
<path d="M164.405 109.743C163.009 105.277 161.801 101.744 161.263 101.361C160.325 100.691 152.889 98.6469 149.359 97.2661C149.245 97.2229 149.132 97.1796 149.022 97.1349C148.703 97.0081 148.386 96.887 148.08 96.7645C147.926 96.704 147.773 96.6463 147.626 96.5901C147.544 96.5598 147.464 96.5296 147.382 96.4993C147.317 96.4733 147.251 96.4474 147.186 96.4258C147.181 96.4301 147.177 96.4388 147.168 96.4431C146.854 96.7962 145.222 98.6469 143.271 101.417C139.623 106.592 134.871 114.978 135.6 122.719C135.836 125.203 136.124 128.77 136.608 132.773C136.643 133.091 136.682 133.408 136.726 133.731H153.186C153.387 129.541 153.745 124.021 154.287 121.883C154.291 121.87 154.295 121.862 154.3 121.849C154.3 121.836 154.304 121.818 154.308 121.805C154.313 121.784 154.321 121.762 154.326 121.739C154.33 121.726 154.334 121.718 154.339 121.705C154.339 121.7 154.339 121.696 154.339 121.696C154.339 121.692 154.343 121.687 154.343 121.687C154.343 121.687 158.327 127.904 158.532 133.731H168.891C168.385 128.318 166.801 117.406 164.405 109.743Z" fill="#2C303D"/>
<path d="M129.609 97.5201C129.609 97.5201 128.366 101.65 126.761 111.961C126.761 111.961 126.761 111.961 126.761 111.966C126.704 112.31 126.651 112.663 126.595 113.024C126.59 113.062 126.582 113.106 126.577 113.15C126.538 113.385 126.504 113.63 126.468 113.874C126.463 113.904 126.459 113.93 126.455 113.96C126.429 114.122 126.403 114.288 126.381 114.456C126.32 114.861 126.258 115.279 126.198 115.702C125.596 119.909 124.793 126.597 123.977 133.732H117.471C117.117 131.75 116.786 129.947 116.812 128.709C116.799 128.734 116.791 128.765 116.782 128.792C116.262 130.229 115.691 131.793 115.11 133.314C115.058 133.454 115.006 133.592 114.953 133.732H103.738L114.909 104.558C115.132 104.384 118.008 102.837 119.91 101.936C121.895 100.991 124.404 99.8278 126.629 98.8044C127.693 98.3114 128.693 97.8545 129.54 97.4668L129.609 97.5201Z" fill="#2C303D"/>
<path d="M144.738 107.721L140.439 110.143L142.276 112.012L138.245 133.732H136.726C136.167 129.342 135.848 125.4 135.6 122.72C134.478 110.75 146.443 97.2498 147.185 96.4268C147.761 96.6444 148.381 96.8837 149.022 97.1374L144.738 107.721Z" fill="#5B5E66"/>
<path d="M129.674 97.4062C129.674 97.4062 128.069 102.638 126.2 115.702C125.598 119.905 124.791 126.597 123.975 133.732H123.343L122.51 113.209L124.556 110.997L122.736 108.727L126.629 98.8029C127.693 98.31 128.692 97.8531 129.54 97.4653L129.674 97.4062Z" fill="#5B5E66"/>
<path d="M147.404 96.4766L143.842 94.3174C143.842 94.3174 143.742 96.2676 134.922 101.361L137.427 108.405L147.404 96.4766Z" fill="#EFEFEF"/>
<path d="M132.573 95.2998C132.573 95.2998 132.712 97.4042 134.919 101.361L130.03 107.723L129.674 97.4042L132.573 95.2998Z" fill="#EFEFEF"/>
<path d="M134.935 101.361C134.935 101.361 135.882 105.145 135.542 106.204C135.542 106.204 133.458 106.961 131.961 106.016C131.961 106.016 133.021 103.366 134.935 101.361Z" fill="#FD5793"/>
<path d="M133.782 114.226C132.782 121.022 132.782 127.896 133.153 133.732H128.978C128.921 132.909 128.868 132.05 128.816 131.154C128.039 117.697 132.804 105.674 132.804 105.674L134.929 105.143C134.929 105.144 134.245 111.09 133.782 114.226Z" fill="#FD5793"/>
<path d="M116.944 122.611C116.786 125.84 116.809 128.707 116.809 128.707V128.708C116.807 128.724 116.804 128.81 116.797 128.954C116.79 128.9 116.784 128.846 116.777 128.793C116.26 130.23 115.685 131.793 115.108 133.313C114.974 131.55 114.939 129.909 114.978 128.387C115.21 119.333 118.062 114.587 118.062 114.587C117.408 116.165 117.095 119.551 116.944 122.611Z" fill="#2D3133"/>
</svg>
