<svg width="25" height="21" viewBox="0 0 25 21" fill="none" xmlns="http://www.w3.org/2000/svg">
<path d="M21.8639 3.5H19.6931V4.66667H21.697V17.5H2.99428V4.66667H4.99814V3.5H2.82729C2.67115 3.50228 2.51705 3.5314 2.3738 3.5857C2.23054 3.63999 2.10094 3.71841 1.99239 3.81645C1.88384 3.9145 1.79848 4.03026 1.74116 4.15713C1.68385 4.28399 1.65572 4.41947 1.65837 4.55583V17.6108C1.65572 17.7472 1.68385 17.8827 1.74116 18.0095C1.79848 18.1364 1.88384 18.2522 1.99239 18.3502C2.10094 18.4483 2.23054 18.5267 2.3738 18.581C2.51705 18.6353 2.67115 18.6644 2.82729 18.6667H21.8639C22.0201 18.6644 22.1742 18.6353 22.3174 18.581C22.4607 18.5267 22.5903 18.4483 22.6988 18.3502C22.8074 18.2522 22.8928 18.1364 22.9501 18.0095C23.0074 17.8827 23.0355 17.7472 23.0329 17.6108V4.55583C23.0355 4.41947 23.0074 4.28399 22.9501 4.15713C22.8928 4.03026 22.8074 3.9145 22.6988 3.81645C22.5903 3.71841 22.4607 3.63999 22.3174 3.5857C22.1742 3.5314 22.0201 3.50228 21.8639 3.5Z" fill="#318CDC"/>
<path d="M5.66602 8.16699H7.00192V9.33366H5.66602V8.16699Z" fill="#318CDC"/>
<path d="M9.67383 8.16699H11.0097V9.33366H9.67383V8.16699Z" fill="#318CDC"/>
<path d="M13.6816 8.16699H15.0175V9.33366H13.6816V8.16699Z" fill="#318CDC"/>
<path d="M17.6895 8.16699H19.0254V9.33366H17.6895V8.16699Z" fill="#318CDC"/>
<path d="M5.66602 11.083H7.00192V12.2497H5.66602V11.083Z" fill="#318CDC"/>
<path d="M9.67383 11.083H11.0097V12.2497H9.67383V11.083Z" fill="#318CDC"/>
<path d="M13.6816 11.083H15.0175V12.2497H13.6816V11.083Z" fill="#318CDC"/>
<path d="M17.6895 11.083H19.0254V12.2497H17.6895V11.083Z" fill="#318CDC"/>
<path d="M5.66602 14H7.00192V15.1667H5.66602V14Z" fill="#318CDC"/>
<path d="M9.67383 14H11.0097V15.1667H9.67383V14Z" fill="#318CDC"/>
<path d="M13.6816 14H15.0175V15.1667H13.6816V14Z" fill="#318CDC"/>
<path d="M17.6895 14H19.0254V15.1667H17.6895V14Z" fill="#318CDC"/>
<path d="M7.00194 5.83366C7.17909 5.83366 7.34899 5.7722 7.47425 5.6628C7.59952 5.55341 7.66989 5.40504 7.66989 5.25033V1.75033C7.66989 1.59562 7.59952 1.44724 7.47425 1.33785C7.34899 1.22845 7.17909 1.16699 7.00194 1.16699C6.82478 1.16699 6.65489 1.22845 6.52962 1.33785C6.40436 1.44724 6.33398 1.59562 6.33398 1.75033V5.25033C6.33398 5.40504 6.40436 5.55341 6.52962 5.6628C6.65489 5.7722 6.82478 5.83366 7.00194 5.83366Z" fill="#318CDC"/>
<path d="M17.6894 5.83366C17.8666 5.83366 18.0365 5.7722 18.1618 5.6628C18.287 5.55341 18.3574 5.40504 18.3574 5.25033V1.75033C18.3574 1.59562 18.287 1.44724 18.1618 1.33785C18.0365 1.22845 17.8666 1.16699 17.6894 1.16699C17.5123 1.16699 17.3424 1.22845 17.2171 1.33785C17.0919 1.44724 17.0215 1.59562 17.0215 1.75033V5.25033C17.0215 5.40504 17.0919 5.55341 17.2171 5.6628C17.3424 5.7722 17.5123 5.83366 17.6894 5.83366Z" fill="#318CDC"/>
<path d="M9.00586 3.5H15.6854V4.66667H9.00586V3.5Z" fill="#318CDC"/>
</svg>
