<svg width="34" height="28" viewBox="0 0 34 28" fill="none" xmlns="http://www.w3.org/2000/svg">
<path d="M17.8514 18.1163C17.8514 15.1769 15.4685 12.7941 12.5292 12.7941C9.58976 12.7941 7.20703 15.1769 7.20703 18.1163C7.20703 21.0557 9.58976 23.4385 12.5292 23.4385C15.4685 23.4385 17.8514 21.0557 17.8514 18.1163Z" stroke="#318CDC" stroke-width="1.3" stroke-miterlimit="10" stroke-linecap="round" stroke-linejoin="round"/>
<path d="M4.9242 21.3305C4.71532 21.373 4.4996 21.3945 4.2786 21.3945C2.46783 21.3945 1 19.9268 1 18.116C1 16.3052 2.46783 14.8374 4.2786 14.8374C4.4996 14.8374 4.71532 14.859 4.9242 14.9014" stroke="#318CDC" stroke-width="1.3" stroke-miterlimit="10" stroke-linecap="round" stroke-linejoin="round"/>
<path d="M29.5436 14.8922L32.9998 14.1075V9.81917H21.4551V11.8309H18.4909V9.81917H12.5743C7.99254 9.81917 4.27832 13.5334 4.27832 18.1152C4.27832 22.6969 7.99254 26.4111 12.5743 26.4111C17.1561 26.4111 20.8703 22.6969 20.8703 18.1152C20.8703 17.6961 20.8389 17.2845 20.779 16.8822L29.5436 14.8922Z" stroke="#318CDC" stroke-width="1.3" stroke-miterlimit="10" stroke-linecap="round" stroke-linejoin="round"/>
<path d="M14.0322 3.0679L15.4293 6.8252" stroke="#318CDC" stroke-width="1.3" stroke-miterlimit="10" stroke-linecap="round" stroke-linejoin="round"/>
<path d="M25.9586 3.0679L24.5615 6.8252" stroke="#318CDC" stroke-width="1.3" stroke-miterlimit="10" stroke-linecap="round" stroke-linejoin="round"/>
<path d="M19.9941 0.99964V5.34082" stroke="#318CDC" stroke-width="1.3" stroke-miterlimit="10" stroke-linecap="round" stroke-linejoin="round"/>
</svg>
