<svg width="62" height="52" viewBox="0 0 62 52" fill="none" xmlns="http://www.w3.org/2000/svg">
<g clip-path="url(#clip0_1141_7121)">
<path d="M45.4057 52L48.0165 28.0622L44.4974 27.7158L42.2177 48.6228C42.0212 50.4284 43.5043 52 45.4057 52Z" fill="#464B5B"/>
<path d="M45.4023 52.0002C46.9334 52.0002 48.2175 50.8963 48.3771 49.4424L50.7197 28.1179L48.0169 28.0625L45.4023 52.0002Z" fill="#2C303D"/>
<path d="M32.4658 52.0002C33.9969 52.0002 35.2809 50.8963 35.4405 49.4423L37.7653 28.2832L35.0249 28.3149L32.4658 52.0002Z" fill="#2C303D"/>
<path d="M32.4677 51.9998L35.0251 28.3142L31.5061 27.9678L29.276 48.622C29.0812 50.4287 30.5655 51.9998 32.4677 51.9998Z" fill="#464B5B"/>
<path d="M59.8552 52C61.2634 52 62.2888 50.7255 61.9257 49.4264L51.9231 13.6406L49.2852 14.35L59.8552 52Z" fill="#2C303D"/>
<path d="M59.8555 51.9996L49.2854 14.3496L45.793 14.8867L55.2285 48.607C55.7884 50.6077 57.6866 51.9996 59.8555 51.9996Z" fill="#464B5B"/>
<path d="M47.1948 0.748646L44.5967 0.182617C45.1228 0.297256 45.642 0.466734 46.1511 0.693531L48.7492 1.25956C48.2401 1.03276 47.7209 0.863285 47.1948 0.748646Z" fill="#28669D"/>
<path d="M34.0723 44.3738L36.6703 44.9398C43.1834 46.3587 50.7846 39.3663 54.2681 28.3365C58.033 16.4157 55.5622 4.29291 48.7496 1.25939L46.1515 0.693359C52.9642 3.7266 55.4347 15.8494 51.67 27.7704C48.1865 38.8003 40.5854 45.7927 34.0723 44.3738Z" fill="#28669D"/>
<path d="M33.9091 39.4565C32.5827 38.8659 31.4406 37.84 30.5145 36.4072C29.6189 35.0219 28.9603 33.315 28.5565 31.3342C28.1528 29.3536 28.0252 27.2006 28.1767 24.9354C28.3334 22.593 28.7845 20.228 29.5176 17.9071C30.2507 15.5862 31.2201 13.4522 32.3994 11.5651C33.5397 9.73994 34.8283 8.21766 36.2293 7.04069C37.6305 5.86344 39.0721 5.09183 40.514 4.74708C42.0052 4.39077 43.4339 4.50954 44.7603 5.10009C46.0868 5.69065 47.2288 6.71661 48.155 8.14932C49.0505 9.53463 49.7091 11.2415 50.1129 13.2224C50.5167 15.2029 50.6445 17.356 50.4927 19.6212C50.336 21.9636 49.8849 24.3286 49.1518 26.6492C48.4188 28.9703 47.4493 31.1041 46.27 32.9915C45.13 34.8163 43.8411 36.3389 42.4402 37.5159C41.039 38.6931 39.5974 39.4647 38.1555 39.8095C36.6642 40.1655 35.2356 40.047 33.9091 39.4565ZM46.1514 0.693114C39.3388 -2.34013 30.7638 4.86475 26.9992 16.7855C23.2343 28.7066 25.7051 40.8291 32.5177 43.8626C39.3304 46.8959 47.905 39.6913 51.67 27.7702C55.4349 15.8491 52.9641 3.72636 46.1514 0.693114Z" fill="#318CDC"/>
<path d="M35.3006 35.0495C34.313 34.6096 33.4639 33.848 32.777 32.7853C32.1115 31.7555 31.6217 30.4857 31.321 29.0108C31.0205 27.5359 30.925 25.9343 31.0378 24.2511C31.1541 22.5133 31.4898 20.756 32.0356 19.0279C32.5813 17.2997 33.3017 15.7138 34.1765 14.3136C35.0238 12.9575 35.9823 11.8252 37.0256 10.9486C38.069 10.072 39.1412 9.49767 40.2131 9.24139C41.3193 8.97712 42.3808 9.06613 43.3685 9.50567C44.3561 9.94548 45.2052 10.7072 45.8921 11.7698C46.5576 12.7996 47.0477 14.0692 47.3481 15.5443C47.6488 17.0192 47.7441 18.6208 47.6312 20.304C47.5149 22.0418 47.1793 23.7991 46.6335 25.5273C46.0877 27.2557 45.3674 28.8416 44.4926 30.2415C43.6452 31.5976 42.6868 32.7299 41.6434 33.6066C40.6001 34.4832 39.5279 35.0574 38.456 35.3137C37.3498 35.578 36.2882 35.4893 35.3006 35.0495ZM44.7596 5.09951C43.4331 4.50896 42.0045 4.39018 40.5132 4.7465C39.0713 5.09124 37.6297 5.86285 36.2285 7.0401C34.8276 8.21736 33.5389 9.73935 32.3986 11.5645C31.2194 13.4516 30.2499 15.5857 29.5169 17.9065C28.7838 20.2277 28.3324 22.5924 28.176 24.9348C28.0244 27.2 28.1523 29.3531 28.5558 31.3336C28.9595 33.3147 29.6182 35.0213 30.5137 36.4067C31.4399 37.8394 32.5819 38.8653 33.9084 39.4559C35.2348 40.0464 36.6634 40.1652 38.1547 39.8089C39.5966 39.4642 41.0382 38.6925 42.4394 37.5153C43.8403 36.338 45.1293 34.8158 46.2693 32.9909C47.4485 31.1038 48.418 28.9697 49.1511 26.6486C49.8841 24.3277 50.3352 21.963 50.4919 19.6206C50.6438 17.3554 50.5156 15.2023 50.1121 13.2218C49.7084 11.2407 49.0498 9.53405 48.1542 8.14874C47.228 6.71603 46.086 5.69007 44.7596 5.09951Z" fill="#EFEFEF"/>
<path d="M36.692 30.6437C36.0435 30.3549 35.4874 29.8572 35.0394 29.1642C34.6036 28.4904 34.2827 27.6576 34.0853 26.6884C33.8879 25.7192 33.825 24.6693 33.8986 23.5675C33.9745 22.4349 34.1947 21.2847 34.5531 20.1493C34.9116 19.0142 35.3826 17.9759 35.9529 17.0631C36.5073 16.1755 37.1362 15.4337 37.8217 14.8575C38.5074 14.2815 39.2105 13.9042 39.9115 13.7367C40.6327 13.5645 41.3271 13.6234 41.9759 13.9122C42.6247 14.201 43.1806 14.699 43.6285 15.3918C44.064 16.0656 44.385 16.8986 44.5824 17.8678C44.7798 18.837 44.8427 19.887 44.7688 20.9884C44.6929 22.121 44.4727 23.2713 44.1142 24.4064C43.7558 25.5417 43.2848 26.5801 42.7145 27.4928C42.1601 28.3804 41.5312 29.1225 40.8457 29.6985C40.1603 30.2744 39.4572 30.6514 38.7559 30.819C38.0352 30.9918 37.3408 30.9325 36.692 30.6437ZM43.3676 9.50663C42.38 9.06682 41.3185 8.97781 40.2122 9.24236C39.1406 9.49864 38.0681 10.0729 37.0248 10.9495C35.9815 11.8261 35.023 12.9582 34.1756 14.3146C33.3009 15.7145 32.5805 17.3007 32.0347 19.0288C31.489 20.7572 31.1533 22.5146 31.037 24.2521C30.9244 25.9353 31.0197 27.5369 31.3201 29.0118C31.6208 30.4866 32.1106 31.7568 32.7762 32.7863C33.4633 33.8489 34.3124 34.6109 35.2998 35.0504C36.2874 35.4902 37.3489 35.579 38.4552 35.3147C39.5268 35.0584 40.5992 34.4841 41.6426 33.6075C42.6859 32.7309 43.6444 31.5989 44.4917 30.2425C45.3665 28.8426 46.0869 27.2564 46.6327 25.5282C47.1784 23.8001 47.5141 22.0428 47.6304 20.305C47.7429 18.6218 47.6477 17.0202 47.3473 15.5453C47.0468 14.0701 46.5568 12.8003 45.8912 11.7707C45.2043 10.7079 44.3552 9.94617 43.3676 9.50663Z" fill="#318CDC"/>
<path d="M38.0841 26.2372C37.7742 26.0992 37.5112 25.8655 37.3026 25.5425C37.0971 25.2245 36.9447 24.8288 36.8506 24.3653C36.7562 23.902 36.7259 23.4035 36.7606 22.8838C36.7958 22.3558 36.9008 21.8129 37.072 21.2706C37.2431 20.7282 37.4648 20.2377 37.7306 19.8122C37.9924 19.3934 38.2911 19.0417 38.6186 18.7661C38.9465 18.4909 39.2804 18.3112 39.6112 18.2321C39.9471 18.1519 40.2747 18.1811 40.5847 18.3192C40.8946 18.4572 41.1576 18.6909 41.3662 19.0136C41.5717 19.3316 41.7238 19.7276 41.8182 20.1909C41.9126 20.6541 41.9429 21.1526 41.9082 21.6724C41.873 22.2004 41.768 22.7432 41.5968 23.2853C41.4257 23.8276 41.204 24.3181 40.9382 24.7436C40.6764 25.1628 40.3777 25.5144 40.0502 25.79C39.7223 26.0653 39.3887 26.245 39.0576 26.3238C38.7214 26.4042 38.3938 26.375 38.0841 26.2372ZM41.9763 13.9125C41.3275 13.6237 40.6331 13.5647 39.9119 13.7369C39.2109 13.9045 38.5075 14.2817 37.8221 14.8577C37.1366 15.4336 36.508 16.1758 35.9533 17.0634C35.383 17.9761 34.912 19.0144 34.5536 20.1495C34.1951 21.2849 33.9749 22.4349 33.899 23.5678C33.8254 24.6695 33.888 25.7194 34.0857 26.6886C34.2831 27.6575 34.6041 28.4906 35.0399 29.1644C35.4875 29.8575 36.0437 30.3551 36.6925 30.6439C37.3412 30.9327 38.0356 30.992 38.7569 30.8195C39.4582 30.6519 40.1613 30.2749 40.8467 29.699C41.5322 29.123 42.1608 28.3809 42.7155 27.4933C43.2858 26.5806 43.7568 25.5422 44.1152 24.4069C44.4737 23.2718 44.6939 22.1218 44.7698 20.9889C44.8434 19.8872 44.7808 18.8372 44.5834 17.8683C44.386 16.8991 44.065 16.0661 43.6295 15.3923C43.1813 14.6992 42.6251 14.2013 41.9763 13.9125Z" fill="white"/>
<path d="M40.585 18.3188C40.895 18.4568 41.1579 18.6905 41.3666 19.0132C41.5721 19.3312 41.7242 19.7272 41.8186 20.1905C41.9129 20.6537 41.9432 21.1522 41.9086 21.6719C41.8734 22.1999 41.7683 22.7428 41.5972 23.2849C41.4261 23.8272 41.2044 24.3177 40.9386 24.7432C40.6768 25.1624 40.3781 25.514 40.0505 25.7896C39.7227 26.0649 39.389 26.2445 39.058 26.3234C38.7218 26.4038 38.3942 26.3746 38.0845 26.2366C37.7745 26.0985 37.5116 25.8648 37.303 25.5418C37.0975 25.2238 36.9451 24.8281 36.851 24.3646C36.7566 23.9013 36.7263 23.4028 36.7609 22.8831C36.7962 22.3551 36.9012 21.8122 37.0724 21.2699C37.2435 20.7276 37.4652 20.237 37.731 19.8115C37.9927 19.3927 38.2914 19.041 38.619 18.7655C38.9469 18.4902 39.2808 18.3105 39.6116 18.2314C39.9478 18.1515 40.2754 18.1807 40.585 18.3188Z" fill="#FD5793"/>
<path d="M1.60468 17.5899L0 17.2584L2.50399 14.7383L10.657 16.4223L8.15297 18.9424L2.1793 17.7087L3.33346 16.2432L1.60468 17.5899Z" fill="#FD5793"/>
<path d="M9.46743 13.1388L10.6568 16.422L2.50382 14.738L1.31445 11.4551L9.46743 13.1388Z" fill="#FD5793"/>
<path d="M37.1294 22.3716C37.3557 22.3716 37.5591 22.2214 37.6088 22.0018C37.6662 21.7488 37.4977 21.4991 37.2327 21.4443L2.4779 14.2529C2.21267 14.1981 1.95148 14.359 1.89404 14.612C1.83661 14.865 2.00516 15.1146 2.2701 15.1695L37.0252 22.3609C37.0601 22.3683 37.0951 22.3716 37.1294 22.3716Z" fill="#565B6B"/>
<path d="M33.039 21.6921L37.0825 22.5271C37.2882 22.5695 37.4911 22.4447 37.5359 22.2482L37.649 21.7489C37.6935 21.5524 37.5627 21.3586 37.3569 21.3159L33.3135 20.4809C33.1077 20.4385 32.9048 20.5633 32.8601 20.7598L32.747 21.2592C32.7025 21.4556 32.8332 21.6496 33.039 21.6921Z" fill="#3F3F3F"/>
<path d="M37.5783 21.792L38.2634 21.9717L38.1947 22.2886L37.4902 22.1814L37.5783 21.792Z" fill="#3F3F3F"/>
<path d="M12.6604 31.3438L11.4668 31.5741L12.3019 29.114L18.3665 27.9438L17.5314 30.4039L13.0879 31.2614L13.37 29.9173L12.6604 31.3438Z" fill="#FD5793"/>
<path d="M16.4848 26.0537L18.3938 27.9784L12.3395 29.1452L10.4307 27.2207L16.4848 26.0537Z" fill="#FD5793"/>
<path d="M38.297 24.3932C38.4498 24.3283 38.536 24.165 38.4946 23.9974C38.4471 23.8044 38.2482 23.6785 38.0506 23.7163L12.1339 28.6784C11.9362 28.7163 11.8147 28.9036 11.8622 29.0967C11.9097 29.2897 12.1086 29.4156 12.3062 29.3778L38.223 24.4157C38.2492 24.4108 38.2739 24.4031 38.297 24.3932Z" fill="#565B6B"/>
<path d="M35.3103 24.957L38.317 24.3769C38.47 24.3473 38.5645 24.203 38.5282 24.0544L38.4356 23.6768C38.3991 23.5283 38.2455 23.4318 38.0924 23.4612L35.0857 24.0413C34.9327 24.0708 34.8382 24.2152 34.8745 24.3638L34.9671 24.7414C35.0036 24.8899 35.1573 24.9866 35.3103 24.957Z" fill="#3F3F3F"/>
<path d="M38.4097 23.7064L38.9308 23.6347L38.9915 23.8725L38.4819 23.9995L38.4097 23.7064Z" fill="#3F3F3F"/>
</g>
<defs>
<clipPath id="clip0_1141_7121">
<rect width="62" height="52" fill="white"/>
</clipPath>
</defs>
</svg>
