<svg enable-background="new 0 0 1840.6 282" viewBox="0 0 1840.6 282" xmlns="http://www.w3.org/2000/svg">
    <g stroke="#00a8e1" stroke-miterlimit="10">
        <path d="m439.7 104c-5.1 22.3-12.2 44.5-14.1 67.4-.2 1.9-.2 3.8 0 5.6.8 10.3 8.1 18.1 16.8 22.9 12.2 6.7 24.5 13.5 37 19.7 11.4 5.7 23.5 12.7 36.3 13.8 12.3 1.1 26.6-6.7 30.9-18.6 5.1-14.3-1.1-26.6-14.3-33.1-6.5-3.2-12.8-6.6-15.7-13.6-2.5-6-2-12.9-.6-19.1 1.9-8.3 4.1-16.6 6.1-24.9 1.5-7.6 2.9-15.2 4.6-22.8 1.4-6.2 3.9-12.6 8.7-17 5.6-5.2 12.7-5.6 20-5.7 14.8-.2 25.6-8.7 27.1-23.8 1.3-12.6-8.3-25.7-20-30-12-4.4-26-3.2-38.7-2.9-14 .3-27.9 1.2-41.9 2.1-9.9.6-19.9 4.6-25 13.5-.9 1.6-1.7 3.3-2.4 5.1-8 21.5-11.1 44.6-16 66.9" fill="none" stroke-linecap="round" stroke-width="11"/>
        <path d="m100.8 71.2 2.9 10.6v.4c0 .1-.1.3-.1.4-.1.1-.2.2-.3.3s-.2.2-.4.2l-6 1.6c-.3.1-.6 0-.8-.1s-.4-.4-.5-.7l-2.8-10.5c-.1-.3-.3-.5-.5-.7-.2-.1-.5-.2-.8-.1l-10.5 2.8c-.3.1-.6 0-.8-.1s-.4-.4-.5-.7l-1.7-6.3c0-.1 0-.3 0-.4s.1-.3.1-.4l.3-.3c.1-.1.2-.2.4-.2l10.2-2.7c.1 0 .3-.1.4-.2s.2-.2.3-.3.1-.3.1-.4 0-.3 0-.4l-2.8-10.1c0-.1 0-.3 0-.4s.1-.3.1-.4c.1-.1.2-.2.3-.3s.2-.2.4-.2l6-1.6c.3-.1.6 0 .8.1s.4.4.5.7l2.7 10.1c.1.3.3.5.5.7s.5.2.8.1l10.7-2.9c.3-.1.6 0 .8.1s.4.4.5.7l1.7 6.2c.1.3 0 .6-.1.8s-.4.4-.7.5l-10.7 2.9c-.3.1-.5.3-.7.5.1.1.1.4.2.7z" fill="#00a8e1" stroke-width="4"/>
        <path d="m499.9 59.3c2.6 0 4.7-2.1 4.7-4.7s-2.1-4.7-4.7-4.7-4.7 2.1-4.7 4.7 2.1 4.7 4.7 4.7z" fill="#00a8e1" stroke-width="4"/>
        <path d="m481 71.4c2.6 0 4.7-2.1 4.7-4.7s-2.1-4.7-4.7-4.7-4.7 2.1-4.7 4.7c.1 2.7 2.2 4.7 4.7 4.7z" fill="#00a8e1" stroke-width="4"/>
        <path d="m511.9 78.3c2.6 0 4.7-2.1 4.7-4.7s-2.1-4.7-4.7-4.7-4.7 2.1-4.7 4.7c0 2.7 2.1 4.7 4.7 4.7z" fill="#00a8e1" stroke-width="4"/>
        <path d="m492.9 90.7c2.6 0 4.7-2.1 4.7-4.7s-2.1-4.7-4.7-4.7-4.7 2.1-4.7 4.7 2.1 4.7 4.7 4.7z" fill="#00a8e1" stroke-width="4"/>
        <path d="m469.1 170.3-2.5 10.7v.4c0 .1.1.3.2.4s.2.2.3.3.2.1.4.2l6.1 1.4c.3.1.6 0 .8-.1.2-.2.4-.4.5-.7l2.4-10.6c.1-.3.2-.5.5-.7.2-.2.5-.2.8-.1l10.5 2.3c.3.1.6 0 .8-.1.2-.2.4-.4.5-.7l1.5-6.3c0-.1 0-.3 0-.4s-.1-.3-.2-.4-.2-.2-.3-.3-.2-.1-.4-.2l-10.4-2.4c-.1 0-.3-.1-.4-.2s-.2-.2-.3-.3-.1-.3-.2-.4 0-.3 0-.4l2.3-10.2c0-.1 0-.3 0-.4s-.1-.3-.2-.4-.2-.2-.3-.3-.2-.1-.4-.2l-6.1-1.4c-.3-.1-.6 0-.8.1-.2.2-.4.4-.5.7l-2.3 10.2c-.1.3-.2.5-.5.7-.2.2-.5.2-.8.1l-10.8-2.5c-.3-.1-.6 0-.8.1-.2.2-.4.4-.5.7l-1.4 6.3c-.1.3 0 .6.1.8.2.2.4.4.7.5l10.8 2.5c.3.1.5.2.7.5.2.2.2.5.2.8z" fill="#00a8e1" stroke-width="4"/>
        <path d="m124.7 182.2c2.6 0 4.7-2.1 4.7-4.7s-2.1-4.7-4.7-4.7-4.7 2.1-4.7 4.7 2.1 4.7 4.7 4.7z" fill="#00a8e1" stroke-width="4"/>
        <path d="m135.9 162.7c2.6 0 4.7-2.1 4.7-4.7s-2.1-4.7-4.7-4.7-4.7 2.1-4.7 4.7c.1 2.6 2.2 4.7 4.7 4.7z" fill="#00a8e1" stroke-width="4"/>
        <path d="m105.3 171c2.6 0 4.7-2.1 4.7-4.7s-2.1-4.7-4.7-4.7-4.7 2.1-4.7 4.7 2.1 4.7 4.7 4.7z" fill="#00a8e1" stroke-width="4"/>
        <path d="m116.3 151.2c2.6 0 4.7-2.1 4.7-4.7s-2.1-4.7-4.7-4.7-4.7 2.1-4.7 4.7c.1 2.6 2.1 4.7 4.7 4.7z" fill="#00a8e1" stroke-width="4"/>
        <path d="m154.3 105.9c-6-22.1-10.1-45-19-66.1-.7-1.7-1.6-3.4-2.6-5-5.5-8.7-15.6-12.2-25.5-12.4-13.9-.3-28-.5-41.9-.2-12.7.3-26.8-.3-38.6 4.7-11.5 4.7-20.5 18.2-18.7 30.7 2.2 15 13.4 23.1 28.1 22.6 7.3-.2 14.4-.2 20.2 4.7 5 4.2 7.8 10.5 9.4 16.6 2.2 8.3 4.1 16.6 6.2 24.9 2.2 7.4 4.5 14.8 6.6 22.3 1.7 6.1 2.5 13 .3 19.1-2.6 7.2-8.7 10.8-15.1 14.3-13 7-18.5 19.6-12.8 33.7 4.8 11.7 19.4 18.9 31.7 17.2 12.7-1.7 24.5-9.3 35.6-15.4 12.2-6.8 24.2-14.1 36.1-21.3 8.4-5.2 15.4-13.3 15.7-23.6.1-1.9-.1-3.8-.3-5.6-3-22.8-11.1-44.6-17.1-66.7" fill="none" stroke-linecap="round" stroke-width="11"/>
        <path d="m148.4 76.3c9.9-2.5 28.4-6.9 39.6-8.9 12-2.2 17-4 27.7-5.2" fill="none" stroke-linecap="round" stroke-width="11"/>
        <path d="m158.1 114.9c7.7-2.1 13-3.7 21.6-5.5" fill="none" stroke-linecap="round" stroke-width="11"/>
        <path d="m390.4 66.7c6.6 1.1 9.8 1.8 16.8 3.3 7.5 1.6 30.6 7.4 37.5 9.2" fill="none" stroke-linecap="round" stroke-width="11"/>
        <path d="m382.9 106.7c6.6 1.2 13.2 1.9 20.2 3.5 9.6 2.1 24.4 5.8 33.1 8.2" fill="none" stroke-linecap="round" stroke-width="11"/>
        <path d="m230.3 123.1c10 8 19.7 16.2 31 22.5 6.4 3.5 13.2 6.4 20.5 6.7 6.9 0 13.7-2 19.5-5.9 3.1-2 9.5-6.9 9.1-11.3-.5-5.1-10.8-12.5-14.2-15.8-6.4-6.5-12.8-13-19.2-19.5-8.8-8.9-16.4-19.7-27.2-26.4-12.1-7.5-22-4.6-34.5-.2" fill="none" stroke-linecap="round" stroke-width="11"/>
        <path d="m257 79.2 9.3-61.7" fill="none" stroke-width="11"/>
        <path d="m286.9 109.6c7.7-5.9 14.6-11 16.5-20.7 1.5-7.6 2.9-15.2 4.4-22.8 2.4-12.7 5.1-27.2 7.5-39.9" fill="none" stroke-width="11"/>
        <path d="m343.3 106.9c-7.8 4.8-16.4 8.8-25.8 7.1-9.7-1.8-12.4-9.4-16.5-17.3" fill="none" stroke-width="11"/>
        <path d="m286.9 211.5c10.5-18.9 11.4-40.8 7.3-61.6" fill="none" stroke-linecap="round" stroke-width="11"/>
        <path d="m215.2 74.2-18.7 19.8c-7.8 8.3-20.3 18.2-23.2 29.6-2.3 9.1 3.4 15.3 8.2 22.1l43.2 45.3v85.3h128.7v-81c22.2-20.9 27.3-48.2 27.4-77.4.1-14.4 5.2-31.2 8.4-45.6 2.1-9.4 3.4-22.3-3.6-30.2-2-2.1-4.4-3.7-7-4.8-2.7-1.1-5.5-1.5-8.4-1.3-1.6.1-14.9 4-14.2 5.6-2.9-6.5-4.9-12.6-11.2-16.5-11.3-7.1-21.5-3.8-30.4 4.4 1.8-2.2-5.9-12.5-7.3-14.2-5.5-6.2-12.9-8.3-21.1-8.2-8.5.1-14.6 5.4-20 11.6-4.9-4.3-9.9-8.7-16-11.2-23.8-9.5-28.6 19.5-30.8 35.9-1.3 10.3-2.7 20.6-4 30.8z" fill="none" stroke-width="11"/>
    </g>
    <path d="m380.1 111.8c-.9.3-1.9.7-2.8 1-6 2.2-11.7 4.2-16.9 2.9-2.6-.7-5.4-2.5-8.6-5.7-5.9-5.9-2.4-17.5.7-27.7.9-3 1.7-5.8 2.3-8.4l7.3-31.6c.4-.4.8-.8 1-1.3s.4-1.1.4-1.6c0-2.5-2.4-4.5-5.3-4.5s-5.3 2-5.3 4.5l-1.2-.3-7.5 32.3c-.5 2.3-1.3 5-2.2 7.8-3.5 11.8-8.4 28.1 2 38.6 3 3 7.6 7.1 13.7 8.7 2 .5 4 .7 6.1.7 6.1 0 11.9-2.1 17.2-4 .9-.3 1.8-.7 2.7-1z" fill="#00a8e1"/>
    <path d="m734.6 90.1v12.7h-25.4v-12.7c0-3.5-1.3-6.5-3.8-9s-5.5-3.8-9-3.8-6.5 1.3-9 3.8-3.8 5.5-3.8 9v101.7c0 3.5 1.2 6.5 3.8 9 2.5 2.5 5.5 3.8 9 3.8s6.5-1.2 9-3.8c2.5-2.5 3.8-5.5 3.8-9v-38.1h-12.7v-25.4h38.1v63.6c0 10.5-3.7 19.5-11.2 27s-16.4 11.2-27 11.2c-10.5 0-19.5-3.7-27-11.2s-11.2-16.4-11.2-27v-101.8c0-10.5 3.7-19.5 11.2-27s16.4-11.2 27-11.2c10.5 0 19.5 3.7 27 11.2 7.4 7.6 11.2 16.5 11.2 27z" fill="#00a8e1" stroke="#00a8e1" stroke-miterlimit="10"/>
    <path d="m797.1 204.6h-23.3l-3.4 25.4h-25.7l24-178h33.4l23.9 178h-25.6zm-19.8-25.5h16.4l-8.3-61z" fill="#00a8e1" stroke="#00a8e1" stroke-miterlimit="10"/>
    <path d="m861.7 142.7v87.3h-25.4v-178h27.2l30 110.9 30-110.9h27.2v178h-25.4v-87.3l-23.7 87.3h-16.3z" fill="#00a8e1" stroke="#00a8e1" stroke-miterlimit="10"/>
    <path d="m988.8 204.6h38.1v25.4h-63.6v-178h63.6v25.4h-38.1v50.9h25.4v25.4h-25.4z" fill="#00a8e1" stroke="#00a8e1" stroke-miterlimit="10"/>
    <path d="m1141.4 90.1v12.7h-25.4v-12.7c0-3.5-1.3-6.5-3.8-9s-5.5-3.8-9-3.8-6.5 1.3-9 3.8-3.8 5.5-3.8 9v101.7c0 3.5 1.2 6.5 3.8 9 2.5 2.5 5.5 3.8 9 3.8s6.5-1.2 9-3.8c2.5-2.5 3.8-5.5 3.8-9v-38.1h-12.7v-25.4h38.1v63.6c0 10.5-3.7 19.5-11.2 27s-16.4 11.2-27 11.2c-10.5 0-19.5-3.7-27-11.2s-11.2-16.4-11.2-27v-101.8c0-10.5 3.7-19.5 11.2-27s16.4-11.2 27-11.2c10.5 0 19.5 3.7 27 11.2 7.5 7.6 11.2 16.5 11.2 27z" fill="#00a8e1" stroke="#00a8e1" stroke-miterlimit="10"/>
    <path d="m1204.9 156.3v73.7h-25.4v-73.7l-29.2-104.3h26.3l15.6 55.7 15.6-55.7h26.3z" fill="#00a8e1" stroke="#00a8e1" stroke-miterlimit="10"/>
    <path d="m1268.5 142.7v87.3h-25.4v-178h27.2l30 110.9 30-110.9h27.2v178h-25.4v-87.3l-23.6 87.3h-16.3z" fill="#00a8e1" stroke="#00a8e1" stroke-miterlimit="10"/>
    <path d="m1395.6 90.1c0-10.5 3.7-19.5 11.2-27s16.4-11.2 27-11.2c10.5 0 19.5 3.7 27 11.2s11.2 16.4 11.2 27v101.7c0 10.5-3.7 19.5-11.2 27s-16.4 11.2-27 11.2c-10.5 0-19.5-3.7-27-11.2s-11.2-16.4-11.2-27zm50.9 0c0-3.5-1.3-6.5-3.8-9s-5.5-3.8-9-3.8-6.5 1.3-9 3.8-3.8 5.5-3.8 9v101.7c0 3.5 1.2 6.5 3.8 9 2.5 2.5 5.5 3.8 9 3.8s6.5-1.2 9-3.8c2.5-2.5 3.8-5.5 3.8-9z" fill="#ec008c"/>
    <path d="m1510 142.7v87.3h-25.4v-178h27.2l23.6 87.3v-87.3h25.4v178h-27.2z" fill="#ec008c"/>
    <path d="m1573.6 52h25.4v152.6h38.1v25.4h-63.6v-178z" fill="#ec008c"/>
    <path d="m1675.3 230h-25.4v-178h25.4z" fill="#ec008c"/>
    <path d="m1713.4 142.7v87.3h-25.4v-178h27.2l23.6 87.3v-87.3h25.4v178h-27.2z" fill="#ec008c"/>
    <path d="m1802.4 204.6h38.1v25.4h-63.5v-178h63.6v25.4h-38.1v50.9h25.4v25.4h-25.4v50.9z" fill="#ec008c"/>
</svg>