<svg width="55" height="55" viewBox="0 0 55 55" fill="none" xmlns="http://www.w3.org/2000/svg">
<path d="M38.976 44.1622C38.6521 44.1622 38.3896 43.8997 38.3896 43.5759V27.3901C38.3896 27.0663 38.6521 26.8037 38.976 26.8037C39.2999 26.8037 39.5623 27.0663 39.5623 27.3901V43.5758C39.5623 43.8997 39.2998 44.1622 38.976 44.1622Z" fill="#00B574"/>
<path d="M39.0492 20.3917C40.7151 23.3208 40.9072 26.3741 39.4782 27.2116C38.0491 28.0492 35.5401 26.3536 33.8741 23.4245C32.2081 20.4955 32.0161 17.4421 33.4451 16.6046C34.8742 15.7671 37.3831 17.4627 39.0492 20.3917V20.3917Z" fill="#F46080"/>
<path d="M38.9014 20.3917C37.2355 23.3208 37.0434 26.3741 38.4724 27.2116C39.9015 28.0492 42.4105 26.3536 44.0765 23.4245C45.7425 20.4955 45.9346 17.4421 44.5055 16.6046C43.0765 15.7671 40.5675 17.4627 38.9014 20.3917V20.3917Z" fill="#F46080"/>
<path d="M38.9751 27.3905C40.6252 27.3905 41.9629 24.6487 41.9629 21.2665C41.9629 17.8844 40.6252 15.1426 38.9751 15.1426C37.325 15.1426 35.9873 17.8844 35.9873 21.2665C35.9873 24.6487 37.325 27.3905 38.9751 27.3905Z" fill="#FF80A1"/>
<path d="M6.54631 48.9149C6.22241 48.9149 5.95996 48.6523 5.95996 48.3285V34.519C5.95996 34.1952 6.22241 33.9326 6.54631 33.9326C6.87021 33.9326 7.13266 34.1952 7.13266 34.519V48.3285C7.13266 48.6524 6.87021 48.9149 6.54631 48.9149Z" fill="#00B574"/>
<path d="M6.62048 27.5206C8.28642 30.4497 8.4785 33.503 7.04945 34.3406C5.6204 35.1781 3.11142 33.4825 1.44536 30.5534C-0.22057 27.6244 -0.412658 24.571 1.01639 23.7335C2.44544 22.896 4.95455 24.5916 6.62048 27.5206V27.5206Z" fill="#F46080"/>
<path d="M6.47271 27.5206C4.80677 30.4497 4.61469 33.503 6.04374 34.3406C7.47279 35.1781 9.98177 33.4825 11.6478 30.5534C13.3138 27.6244 13.5058 24.571 12.0768 23.7335C10.6477 22.896 8.13864 24.5916 6.47271 27.5206V27.5206Z" fill="#F46080"/>
<path d="M6.54639 34.5194C8.19651 34.5194 9.53419 31.7776 9.53419 28.3954C9.53419 25.0133 8.19651 22.2715 6.54639 22.2715C4.89628 22.2715 3.55859 25.0133 3.55859 28.3954C3.55859 31.7776 4.89628 34.5194 6.54639 34.5194Z" fill="#FF80A1"/>
<path d="M5.0121 29.6461C5.34293 29.6461 5.61111 29.4221 5.61111 29.1458C5.61111 28.8695 5.34293 28.6455 5.0121 28.6455C4.68127 28.6455 4.41309 28.8695 4.41309 29.1458C4.41309 29.4221 4.68127 29.6461 5.0121 29.6461Z" fill="white"/>
<path d="M8.08144 29.6461C8.41226 29.6461 8.68045 29.4221 8.68045 29.1458C8.68045 28.8695 8.41226 28.6455 8.08144 28.6455C7.75061 28.6455 7.48242 28.8695 7.48242 29.1458C7.48242 29.4221 7.75061 29.6461 8.08144 29.6461Z" fill="white"/>
<path d="M6.54688 30.6989C6.18721 30.6989 5.85839 30.53 5.64449 30.2357C5.54645 30.1007 5.57436 29.9104 5.70699 29.8106C5.83951 29.7108 6.02655 29.7392 6.12447 29.8743C6.33157 30.1593 6.76207 30.1593 6.96917 29.8743C7.06721 29.7393 7.25413 29.7108 7.38665 29.8106C7.51928 29.9104 7.54719 30.1007 7.44915 30.2357C7.23549 30.53 6.90655 30.6989 6.54688 30.6989V30.6989Z" fill="#424242"/>
<path d="M5.26652 28.8578C5.081 28.8578 4.93066 28.7048 4.93066 28.5159V28.1359C4.93066 27.9471 5.081 27.7939 5.26652 27.7939C5.45205 27.7939 5.60239 27.947 5.60239 28.1359V28.5159C5.60239 28.7047 5.45205 28.8578 5.26652 28.8578Z" fill="#424242"/>
<path d="M7.82707 28.8578C7.64155 28.8578 7.49121 28.7048 7.49121 28.5159V28.1359C7.49121 27.9471 7.64155 27.7939 7.82707 27.7939C8.01259 27.7939 8.16293 27.947 8.16293 28.1359V28.5159C8.16293 28.7047 8.01259 28.8578 7.82707 28.8578Z" fill="#424242"/>
<path d="M21.9906 48.9142C21.6667 48.9142 21.4043 48.6516 21.4043 48.3278V23.8256C21.4043 23.5018 21.6667 23.2393 21.9906 23.2393C22.3145 23.2393 22.577 23.5018 22.577 23.8256V48.3278C22.577 48.6517 22.3144 48.9142 21.9906 48.9142Z" fill="#00B574"/>
<path d="M22.0638 16.8273C23.7298 19.7563 23.9219 22.8097 22.4928 23.6472C21.0638 24.4847 18.5548 22.7891 16.8887 19.8601C15.2228 16.931 15.0307 13.8777 16.4598 13.0402C17.8889 12.2026 20.3979 13.8981 22.0638 16.8273V16.8273Z" fill="#A37ACC"/>
<path d="M21.9161 16.8273C20.2501 19.7563 20.058 22.8097 21.4871 23.6472C22.9161 24.4847 25.4251 22.7891 27.0912 19.8601C28.7571 16.931 28.9492 13.8777 27.5202 13.0402C26.0911 12.2026 23.582 13.8981 21.9161 16.8273V16.8273Z" fill="#A37ACC"/>
<path d="M21.9898 23.826C23.6399 23.826 24.9776 21.0842 24.9776 17.7021C24.9776 14.3199 23.6399 11.5781 21.9898 11.5781C20.3396 11.5781 19.002 14.3199 19.002 17.7021C19.002 21.0842 20.3396 23.826 21.9898 23.826Z" fill="#B894DD"/>
<path d="M20.4555 18.6431C20.7863 18.6431 21.0545 18.4191 21.0545 18.1429C21.0545 17.8666 20.7863 17.6426 20.4555 17.6426C20.1246 17.6426 19.8564 17.8666 19.8564 18.1429C19.8564 18.4191 20.1246 18.6431 20.4555 18.6431Z" fill="#FFD2E2"/>
<path d="M23.5248 18.6431C23.8556 18.6431 24.1238 18.4191 24.1238 18.1429C24.1238 17.8666 23.8556 17.6426 23.5248 17.6426C23.194 17.6426 22.9258 17.8666 22.9258 18.1429C22.9258 18.4191 23.194 18.6431 23.5248 18.6431Z" fill="#FFD2E2"/>
<path d="M21.9902 19.696C21.6306 19.696 21.3017 19.5271 21.0878 19.2328C20.9898 19.0978 21.0177 18.9075 21.1504 18.8077C21.2829 18.7079 21.4699 18.7362 21.5678 18.8713C21.7749 19.1564 22.2054 19.1564 22.4125 18.8713C22.5106 18.7364 22.6975 18.7079 22.83 18.8077C22.9626 18.9075 22.9906 19.0978 22.8925 19.2328C22.6787 19.5271 22.3499 19.696 21.9902 19.696Z" fill="#424242"/>
<path d="M20.7099 17.8549C20.5244 17.8549 20.374 17.7019 20.374 17.5129V17.133C20.374 16.9442 20.5244 16.791 20.7099 16.791C20.8954 16.791 21.0457 16.9441 21.0457 17.133V17.5129C21.0457 17.7017 20.8954 17.8549 20.7099 17.8549Z" fill="#424242"/>
<path d="M23.2704 17.8549C23.0849 17.8549 22.9346 17.7019 22.9346 17.5129V17.133C22.9346 16.9442 23.0849 16.791 23.2704 16.791C23.456 16.791 23.6063 16.9441 23.6063 17.133V17.5129C23.6063 17.7017 23.456 17.8549 23.2704 17.8549Z" fill="#424242"/>
<path d="M37.4398 21.9654C37.7707 21.9654 38.0388 21.7414 38.0388 21.4651C38.0388 21.1888 37.7707 20.9648 37.4398 20.9648C37.109 20.9648 36.8408 21.1888 36.8408 21.4651C36.8408 21.7414 37.109 21.9654 37.4398 21.9654Z" fill="white"/>
<path d="M40.5101 21.9654C40.841 21.9654 41.1092 21.7414 41.1092 21.4651C41.1092 21.1888 40.841 20.9648 40.5101 20.9648C40.1793 20.9648 39.9111 21.1888 39.9111 21.4651C39.9111 21.7414 40.1793 21.9654 40.5101 21.9654Z" fill="white"/>
<path d="M38.9746 23.0182C38.6149 23.0182 38.2861 22.8494 38.0722 22.555C37.9742 22.42 38.0021 22.2297 38.1347 22.1299C38.2672 22.0301 38.4543 22.0585 38.5522 22.1936C38.7593 22.4787 39.1898 22.4787 39.3969 22.1936C39.4949 22.0586 39.6819 22.0301 39.8144 22.1299C39.947 22.2297 39.9749 22.42 39.8769 22.555C39.6631 22.8495 39.3343 23.0182 38.9746 23.0182Z" fill="#424242"/>
<path d="M37.6943 21.1772C37.5087 21.1772 37.3584 21.0241 37.3584 20.8352V20.4552C37.3584 20.2664 37.5087 20.1133 37.6943 20.1133C37.8798 20.1133 38.0301 20.2663 38.0301 20.4552V20.8352C38.03 21.0241 37.8797 21.1772 37.6943 21.1772Z" fill="#424242"/>
<path d="M40.2548 21.1772C40.0693 21.1772 39.9189 21.0241 39.9189 20.8352V20.4552C39.9189 20.2664 40.0693 20.1133 40.2548 20.1133C40.4403 20.1133 40.5907 20.2663 40.5907 20.4552V20.8352C40.5905 21.0241 40.4402 21.1772 40.2548 21.1772Z" fill="#424242"/>
<path d="M43.1768 50.7376C43.1768 50.7376 43.2 34.9001 52.3433 26.0752C52.3433 26.0752 42.4753 26.9133 38.8979 42.388C38.3813 44.6226 39.4395 29.0637 29.9443 26.7237C29.9443 26.7237 36.7158 34.6507 34.0315 48.5535C34.0315 48.5535 31.8735 43.5708 32.5299 37.8235C32.5299 37.8235 27.2386 42.1991 29.1109 48.3688C29.1109 48.3688 24.5552 39.4961 26.1565 29.633C26.1565 29.633 20.7208 37.1075 22.0919 48.2853C22.0919 48.2853 21.03 34.1869 12.608 33.1096C12.608 33.1096 17.1274 40.7074 15.2104 50.4312C15.2104 50.4312 12.5852 45.6852 11.9981 40.289C11.9981 40.289 8.68766 44.1154 9.55921 50.7064C9.31904 49.1396 7.80215 42.034 0.0585938 42.2584C0.0585938 42.2584 5.66339 47.0661 5.08032 55H48.7539C49.2157 49.9129 50.5452 42.8228 54.3545 41.3107C54.3544 41.3108 44.4471 40.0077 43.1768 50.7376V50.7376Z" fill="#00CB8C"/>
<path d="M2.08971 42.38C1.46536 42.2812 0.789888 42.2369 0.0585938 42.2581C0.0585938 42.2581 5.66339 47.0658 5.08032 54.9997H6.97716C7.5064 47.7982 2.93768 43.1726 2.08971 42.38V42.38Z" fill="#00B574"/>
<path d="M0.0625 51.3975H54.9378V55.0001H0.0625V51.3975Z" fill="#59DCA6"/>
<path d="M0.0625 51.3975H2.21921V55.0001H0.0625V51.3975Z" fill="#00CB8C"/>
<path d="M4.2373 6.71148C2.50406 5.89587 0.711821 6.08983 0.234064 7.14468C-0.243693 8.19952 0.774209 9.71582 2.50746 10.5313C4.2407 11.3468 8.36989 10.9729 8.36989 10.9729C8.36989 10.9729 5.97055 7.52709 4.2373 6.71148V6.71148Z" fill="#34C7D7"/>
<path d="M3.76273 8.37472C4.70324 8.81729 5.83911 10.0339 6.68216 11.0546C7.64788 11.038 8.36956 10.9729 8.36956 10.9729C8.36956 10.9729 5.97022 7.52698 4.23697 6.71148C2.50361 5.89587 0.711373 6.08983 0.233616 7.14468C0.0799921 7.48394 0.0818684 7.87093 0.211569 8.26695C0.974878 7.71672 2.38704 7.72739 3.76273 8.37472V8.37472Z" fill="#18B2B2"/>
<path d="M9.25579 3.86674C8.70263 1.6168 7.19137 0.0682549 5.88029 0.408103C4.56922 0.747951 3.95484 2.84731 4.508 5.09725C5.06116 7.34719 8.47688 10.9693 8.47688 10.9693C8.47688 10.9693 9.80895 6.11668 9.25579 3.86674Z" fill="#34C7D7"/>
<path d="M9.25566 3.86674C8.7025 1.6168 7.19124 0.0682549 5.88017 0.408103C5.46761 0.515053 5.12413 0.7965 4.86426 1.20178C6.03121 1.32034 7.23416 2.74435 7.7145 4.6983C8.03324 5.99484 7.72599 8.15553 7.40843 9.75392C8.01717 10.4813 8.47675 10.9692 8.47675 10.9692C8.47675 10.9692 9.80882 6.11668 9.25566 3.86674V3.86674Z" fill="#18B2B2"/>
<path d="M5.1358 18.5408C3.51231 18.6382 2.31452 17.1062 2.6505 15.5476C3.22864 12.2758 5.89383 9.73663 9.16096 9.36945C10.3583 9.23495 11.3866 9.27857 11.8002 9.70508C12.0771 9.99063 12.1753 10.5587 12.1597 11.2719C12.0754 15.138 8.96337 18.3153 5.1358 18.5408V18.5408Z" fill="#D38451"/>
<path d="M4.31032 16.498C4.88846 13.2262 7.55365 10.687 10.8208 10.32C11.2688 10.2697 11.693 10.2443 12.0703 10.2545C12.0121 10.0231 11.9252 9.83413 11.8002 9.70513C11.3867 9.27862 10.3583 9.23488 9.16095 9.36951C5.89369 9.73668 3.22862 12.2758 2.65048 15.5475C2.34147 16.981 3.33029 18.391 4.75407 18.5324C4.33858 17.9755 4.15036 17.24 4.31032 16.498Z" fill="#C46D3D"/>
<path d="M3.28859 13.5752C3.01324 14.1454 2.8072 14.7559 2.68066 15.3955C3.49135 16.7101 4.64423 17.757 5.9933 18.4377C6.83436 18.2877 7.62933 17.9951 8.3516 17.5852C6.21177 16.9969 4.37181 15.5608 3.28859 13.5752V13.5752Z" fill="#FFC480"/>
<path d="M7.46284 9.77246C6.99834 9.94309 6.55494 10.1596 6.1377 10.4165C7.43986 12.2344 9.43227 13.4558 11.6566 13.7804C11.8321 13.332 11.9657 12.8636 12.0508 12.3791C10.2709 12.0344 8.66017 11.1126 7.46284 9.77246V9.77246Z" fill="#FFC480"/>
<path d="M5.03171 11.2471C4.71274 11.5359 4.41792 11.8519 4.15137 12.1919C5.37578 14.3945 7.53483 15.9114 9.9968 16.3259C10.3578 15.9613 10.6815 15.5604 10.9623 15.1292C8.50583 14.7941 6.32473 13.3658 5.03171 11.2471V11.2471Z" fill="#FFC480"/>
<path d="M12.9574 8.68469C12.6335 8.68469 12.3711 8.42212 12.3711 8.09834C12.3711 6.89632 13.0331 4.62305 15.5382 4.62305C15.8621 4.62305 16.1245 4.88561 16.1245 5.2094C16.1245 5.53318 15.8621 5.79574 15.5382 5.79574C13.5665 5.79574 13.5438 8.00429 13.5438 8.09834C13.5438 8.42212 13.2813 8.68469 12.9574 8.68469V8.68469Z" fill="#5B5B5B"/>
<path d="M12.1175 8.21017C11.9419 8.21017 11.7682 8.1316 11.6526 7.98173C10.9859 7.11651 10.7415 6.00655 10.9821 4.93635C11.2207 3.87529 11.9079 2.9858 12.8672 2.49596C13.1555 2.34855 13.5088 2.46313 13.6561 2.75161C13.8034 3.04009 13.6889 3.39319 13.4005 3.54048C12.7525 3.8713 12.2882 4.47383 12.1263 5.19364C11.9625 5.92259 12.1284 6.67792 12.5816 7.26603C12.7793 7.52261 12.7314 7.89072 12.475 8.08832C12.3684 8.17041 12.2424 8.21017 12.1175 8.21017V8.21017Z" fill="#5B5B5B"/>
<path d="M12.4993 7.0723C13.8376 7.88427 14.8711 9.90272 14.1669 11.1846C13.4626 12.4665 11.2872 12.5264 9.94894 11.7144C8.61066 10.9024 8.09667 9.20508 8.80099 7.9232C9.50519 6.64133 11.161 6.26032 12.4993 7.0723V7.0723Z" fill="#F9ED99"/>
<path d="M10.105 9.23006C10.8062 7.95381 12.4503 7.57104 13.7854 8.36883C13.4464 7.83736 12.9939 7.37227 12.4993 7.0723C11.161 6.26032 9.50519 6.64133 8.80099 7.9232C8.09667 9.20508 8.61066 10.9024 9.94894 11.7144C10.0044 11.7481 10.0618 11.7796 10.1199 11.8103C9.70092 11.0006 9.66351 10.0337 10.105 9.23006V9.23006Z" fill="#FFC480"/>
<path d="M11.6998 8.67331C12.0804 8.96531 12.2268 9.45562 12.027 9.76849C11.8272 10.0813 11.3567 10.0981 10.9761 9.80614C10.5956 9.51413 10.4491 9.02383 10.649 8.71095C10.8488 8.39808 11.3193 8.38131 11.6998 8.67331Z" fill="#424242"/>
<path d="M24.7409 44.4819C25.0815 44.4819 25.3577 44.1399 25.3577 43.718C25.3577 43.2961 25.0815 42.9541 24.7409 42.9541C24.4002 42.9541 24.124 43.2961 24.124 43.718C24.124 44.1399 24.4002 44.4819 24.7409 44.4819Z" fill="white"/>
<path d="M34.3737 31.9926C34.7143 31.9926 34.9905 31.6506 34.9905 31.2287C34.9905 30.8069 34.7143 30.4648 34.3737 30.4648C34.033 30.4648 33.7568 30.8069 33.7568 31.2287C33.7568 31.6506 34.033 31.9926 34.3737 31.9926Z" fill="white"/>
<path d="M46.0768 48.9106C46.4175 48.9106 46.6936 48.5686 46.6936 48.1467C46.6936 47.7248 46.4175 47.3828 46.0768 47.3828C45.7361 47.3828 45.46 47.7248 45.46 48.1467C45.46 48.5686 45.7361 48.9106 46.0768 48.9106Z" fill="white"/>
<path d="M12.0495 49.8881C12.3901 49.8881 12.6663 49.5461 12.6663 49.1242C12.6663 48.7024 12.3901 48.3604 12.0495 48.3604C11.7088 48.3604 11.4326 48.7024 11.4326 49.1242C11.4326 49.5461 11.7088 49.8881 12.0495 49.8881Z" fill="white"/>
<path d="M40.2555 46.3637C40.5962 46.3637 40.8723 46.0217 40.8723 45.5998C40.8723 45.1779 40.5962 44.8359 40.2555 44.8359C39.9148 44.8359 39.6387 45.1779 39.6387 45.5998C39.6387 46.0217 39.9148 46.3637 40.2555 46.3637Z" fill="white"/>
<path d="M47.5973 30.4096C47.938 30.4096 48.2141 30.0676 48.2141 29.6457C48.2141 29.2238 47.938 28.8818 47.5973 28.8818C47.2566 28.8818 46.9805 29.2238 46.9805 29.6457C46.9805 30.0676 47.2566 30.4096 47.5973 30.4096Z" fill="white"/>
<path d="M16.7047 38.2534C17.0454 38.2534 17.3216 37.9114 17.3216 37.4895C17.3216 37.0676 17.0454 36.7256 16.7047 36.7256C16.3641 36.7256 16.0879 37.0676 16.0879 37.4895C16.0879 37.9114 16.3641 38.2534 16.7047 38.2534Z" fill="white"/>
</svg>
