<svg width="16" height="16" viewBox="0 0 16 16" fill="none" xmlns="http://www.w3.org/2000/svg">
<path d="M7.98587 11.3584C9.83664 11.3584 11.337 9.85476 11.337 7.99998C11.337 6.1452 9.83664 4.6416 7.98587 4.6416C6.13511 4.6416 4.63477 6.1452 4.63477 7.99998C4.63477 9.85476 6.13511 11.3584 7.98587 11.3584Z" fill="#F9ED99"/>
<path d="M6.89234 7.99998C6.89234 6.54219 7.81936 5.3019 9.1146 4.83744C8.76181 4.71096 8.382 4.6416 7.98587 4.6416C6.13514 4.6416 4.63477 6.14516 4.63477 7.99998C4.63477 9.85479 6.13514 11.3584 7.98587 11.3584C8.382 11.3584 8.76194 11.289 9.1146 11.1625C7.81936 10.6981 6.89234 9.45777 6.89234 7.99998V7.99998Z" fill="#FFC480"/>
<path d="M7.98416 2.70356C7.63202 2.70356 7.34668 2.41809 7.34668 2.06607V0.637481C7.34668 0.285464 7.63202 0 7.98416 0C8.3363 0 8.62164 0.285464 8.62164 0.637481V2.06607C8.62164 2.41809 8.3363 2.70356 7.98416 2.70356Z" fill="#FFC480"/>
<path d="M3.79765 4.44226C3.63433 4.44226 3.47088 4.37979 3.34644 4.2551L2.33858 3.24494C2.08984 2.99569 2.09035 2.59204 2.3396 2.34342C2.58873 2.09467 2.99238 2.09531 3.241 2.34444L4.24886 3.35459C4.62676 3.73313 4.3325 4.44226 3.79765 4.44226V4.44226Z" fill="#FFC480"/>
<path d="M2.06289 8.63824H0.637481C0.285336 8.63824 0 8.35278 0 8.00076C0 7.64875 0.285336 7.36328 0.637481 7.36328H2.06289C2.41503 7.36328 2.70037 7.64875 2.70037 8.00076C2.70037 8.35278 2.4149 8.63824 2.06289 8.63824Z" fill="#FFC480"/>
<path d="M2.78971 13.8438C2.25486 13.8438 1.9606 13.1347 2.3385 12.756L3.34635 11.7459C3.5951 11.4965 3.99875 11.4962 4.24775 11.7448C4.49701 11.9936 4.49752 12.3971 4.24877 12.6464L3.24092 13.6565C3.11635 13.7813 2.95303 13.8438 2.78971 13.8438Z" fill="#FFC480"/>
<path d="M7.98416 16.0003C7.63202 16.0003 7.34668 15.7148 7.34668 15.3628V13.9344C7.34668 13.5823 7.63202 13.2969 7.98416 13.2969C8.3363 13.2969 8.62164 13.5823 8.62164 13.9344V15.363C8.62164 15.7148 8.3363 16.0003 7.98416 16.0003V16.0003Z" fill="#FFC480"/>
<path d="M13.1796 13.8437C13.0163 13.8437 12.8529 13.7814 12.7284 13.6566L11.7204 12.6464C11.4717 12.3972 11.4722 11.9935 11.7213 11.7449C11.9707 11.4962 12.3742 11.4965 12.6229 11.7458L13.6308 12.7559C14.0089 13.1346 13.7145 13.8437 13.1796 13.8437V13.8437Z" fill="#FFC480"/>
<path d="M15.3316 8.63824H13.906C13.5539 8.63824 13.2686 8.35278 13.2686 8.00076C13.2686 7.64875 13.5539 7.36328 13.906 7.36328H15.3316C15.6837 7.36328 15.9691 7.64875 15.9691 8.00076C15.9691 8.35278 15.6837 8.63824 15.3316 8.63824Z" fill="#FFC480"/>
<path d="M12.1706 4.44237C11.6359 4.44237 11.3414 3.73324 11.7194 3.35457L12.7274 2.34442C12.976 2.09517 13.3795 2.09479 13.6289 2.34353C13.878 2.59215 13.8785 2.9958 13.6298 3.24506L12.6218 4.25521C12.4972 4.38003 12.3339 4.44237 12.1706 4.44237V4.44237Z" fill="#FFC480"/>
</svg>
