<svg width="29" height="28" viewBox="0 0 29 28" fill="none" xmlns="http://www.w3.org/2000/svg">
<path d="M11.8098 2.45095C12.9102 0.221218 16.0898 0.22122 17.1902 2.45096L19.239 6.60227C19.676 7.4877 20.5207 8.10141 21.4978 8.24339L26.0791 8.90908C28.5397 9.26664 29.5222 12.2906 27.7417 14.0262L24.4267 17.2575C23.7196 17.9467 23.397 18.9397 23.5639 19.9129L24.3465 24.4756C24.7668 26.9264 22.1945 28.7952 19.9936 27.6382L15.896 25.4839C15.0221 25.0245 13.9779 25.0245 13.104 25.4839L9.00639 27.6382C6.8055 28.7952 4.23321 26.9263 4.65354 24.4756L5.43611 19.9129C5.60302 18.9397 5.28038 17.9467 4.57332 17.2575L1.2583 14.0262C-0.52225 12.2906 0.460281 9.26664 2.92094 8.90908L7.50219 8.24339C8.47932 8.10141 9.32401 7.4877 9.761 6.60227L11.8098 2.45095Z" fill="#318CDC"/>
</svg>
