<svg width="39" height="39" viewBox="0 0 39 39" fill="none" xmlns="http://www.w3.org/2000/svg">
<path d="M32.9625 39.0002H24.3145C23.6834 39.0002 23.1719 38.4887 23.1719 37.8576V18.2764C23.1719 17.6454 23.6834 17.1338 24.3145 17.1338H35.4101C35.7379 17.1338 36.0497 17.2746 36.2667 17.5202C36.4836 17.7659 36.5845 18.0929 36.5438 18.4181L34.0962 37.9993C34.0248 38.5711 33.5387 39.0002 32.9625 39.0002Z" fill="#FD5793"/>
<path d="M14.6855 39.0003H6.03748C5.46131 39.0003 4.97519 38.5712 4.90374 37.9994L2.45611 18.4181C2.41543 18.0929 2.51636 17.7659 2.7333 17.5202C2.95023 17.2746 3.26208 17.1338 3.58985 17.1338H14.6855C15.3165 17.1338 15.8281 17.6454 15.8281 18.2764V37.8577C15.8281 38.4887 15.3165 39.0003 14.6855 39.0003Z" fill="#FD5793"/>
<path d="M24.3137 39.0002H14.6855V19.4189C14.6855 18.7879 15.1971 18.2764 15.8281 18.2764H23.1711C23.8021 18.2764 24.3137 18.7879 24.3137 19.4189V39.0002Z" fill="#FFB543"/>
<path d="M23.1715 18.2764H19.5V39.0002H24.3141V19.4189C24.3141 18.7879 23.8025 18.2764 23.1715 18.2764Z" fill="#FF9743"/>
<path d="M21.9479 12.0758C21.3169 12.0758 20.8053 11.5643 20.8053 10.9333C20.8053 10.3022 21.3169 9.79068 21.9479 9.79068C26.8724 9.79068 29.4408 7.03066 29.4408 4.633C29.4408 3.16289 28.4698 2.28516 26.8431 2.28516C23.8819 2.28516 21.4604 7.83542 20.6085 11.2109C20.4809 11.719 20.024 12.0755 19.5002 12.0755C19.5 12.0755 19.4998 12.0755 19.4996 12.0755C18.9756 12.0753 18.5188 11.7187 18.3917 11.2104C17.8943 9.23615 15.5446 2.28516 12.1573 2.28516C10.5307 2.28516 9.55957 3.16281 9.55957 4.633C9.55957 7.02785 12.1209 9.79068 17.0525 9.79068C17.6835 9.79068 18.1951 10.3022 18.1951 10.9333C18.1951 11.5643 17.6835 12.0758 17.0525 12.0758C10.1182 12.0758 7.27441 7.67371 7.27441 4.633C7.27449 2.27586 8.89291 0 12.1573 0C14.4596 0 17.2042 1.65004 19.5002 7.33977C21.7982 1.64554 24.5441 0 26.8432 0C30.1027 0 31.726 2.26954 31.726 4.633C31.726 7.65825 28.8895 12.0758 21.9479 12.0758Z" fill="#FFB543"/>
<path d="M19.4996 7.33977C21.7975 1.64554 24.5434 0 26.8425 0C30.102 0 31.7254 2.26954 31.7254 4.633C31.7254 7.65825 28.8889 12.0758 21.9473 12.0758C21.3163 12.0758 20.8047 11.5643 20.8047 10.9333C20.8047 10.3022 21.3163 9.79068 21.9473 9.79068C26.8719 9.79068 29.4402 7.03066 29.4402 4.633C29.4402 3.16289 28.4692 2.28516 26.8425 2.28516C23.8813 2.28516 21.4598 7.83542 20.6079 11.2109C20.4803 11.719 20.0234 12.0755 19.4996 12.0755C19.4994 12.0755 19.4993 12.0755 19.499 12.0755L19.4996 7.33977Z" fill="#FF9743"/>
<path d="M14.6859 19.4182H2.06045C1.48429 19.4182 0.998161 18.9892 0.926712 18.4173L0.00884047 11.0744C-0.0318353 10.7492 0.0690924 10.4222 0.28603 10.1765C0.502967 9.9308 0.814815 9.79004 1.14258 9.79004H14.6859C15.317 9.79004 15.8285 10.3016 15.8285 10.9326V18.2756C15.8285 18.9067 15.317 19.4182 14.6859 19.4182Z" fill="#F03D7E"/>
<path d="M36.9399 19.4191H24.3145C23.6834 19.4191 23.1719 18.9076 23.1719 18.2766V10.9336C23.1719 10.3026 23.6834 9.79102 24.3145 9.79102H37.8578C38.1856 9.79102 38.4974 9.93178 38.7144 10.1774C38.9313 10.4232 39.0322 10.7502 38.9916 11.0753L38.0737 18.4183C38.0023 18.9901 37.5162 19.4191 36.9399 19.4191V19.4191Z" fill="#F03D7E"/>
<path d="M14.6855 9.79102H24.3137V19.4191H14.6855V9.79102Z" fill="#FFDB5C"/>
<path d="M19.5 9.79102H24.3141V19.4191H19.5V9.79102Z" fill="#FFB543"/>
</svg>
