<svg width="26" height="26" viewBox="0 0 26 26" fill="none" xmlns="http://www.w3.org/2000/svg">
<path d="M24.1049 5.59637H17.2227L15.8329 3.26167C15.697 3.03341 15.451 2.89355 15.1854 2.89355H10.8145C10.5488 2.89355 10.3028 3.03341 10.1669 3.26167L8.77716 5.59637H6.51878V5.0818C6.51878 4.66562 6.18137 4.32821 5.7652 4.32821H2.97685C2.56059 4.32821 2.22327 4.66562 2.22327 5.0818V5.59637H1.895C0.848341 5.59637 0 6.44479 0 7.49128V21.2114C0 22.258 0.848341 23.1064 1.89491 23.1064H24.1049C25.1515 23.1064 25.9999 22.258 25.9999 21.2114V7.49128C26 6.44479 25.1515 5.59637 24.1049 5.59637ZM12.9999 19.7452C10.0209 19.7452 7.60605 17.3303 7.60605 14.3513C7.60605 11.3724 10.0209 8.95741 12.9999 8.95741C15.9789 8.95741 18.3938 11.3724 18.3938 14.3513C18.3938 17.3303 15.9789 19.7452 12.9999 19.7452ZM22.9226 9.50312H20.5613C20.1451 9.50312 19.8077 9.16571 19.8077 8.74945C19.8077 8.33319 20.1451 7.99578 20.5613 7.99578H22.9226C23.339 7.99578 23.6763 8.33319 23.6763 8.74945C23.6763 9.16571 23.3389 9.50312 22.9226 9.50312Z" fill="white"/>
<path d="M12.9996 18.1193C15.0807 18.1193 16.7678 16.4323 16.7678 14.3512C16.7678 12.2701 15.0807 10.583 12.9996 10.583C10.9185 10.583 9.23145 12.2701 9.23145 14.3512C9.23145 16.4323 10.9185 18.1193 12.9996 18.1193Z" fill="white"/>
</svg>
