<svg width="23" height="23" viewBox="0 0 23 23" fill="none" xmlns="http://www.w3.org/2000/svg">
<path d="M5.175 17.825L13.8 13.8L17.825 5.175L9.2 9.2L5.175 17.825ZM11.5 12.65C11.1742 12.65 10.9012 12.5396 10.6812 12.3188C10.4604 12.0988 10.35 11.8258 10.35 11.5C10.35 11.1742 10.4604 10.9009 10.6812 10.68C10.9012 10.46 11.1742 10.35 11.5 10.35C11.8258 10.35 12.0991 10.46 12.32 10.68C12.54 10.9009 12.65 11.1742 12.65 11.5C12.65 11.8258 12.54 12.0988 12.32 12.3188C12.0991 12.5396 11.8258 12.65 11.5 12.65ZM11.5 23C9.90917 23 8.41417 22.6979 7.015 22.0938C5.61583 21.4904 4.39875 20.6712 3.36375 19.6362C2.32875 18.6012 1.50957 17.3842 0.9062 15.985C0.302067 14.5858 0 13.0908 0 11.5C0 9.90917 0.302067 8.41417 0.9062 7.015C1.50957 5.61583 2.32875 4.39875 3.36375 3.36375C4.39875 2.32875 5.61583 1.50918 7.015 0.90505C8.41417 0.301683 9.90917 0 11.5 0C13.0908 0 14.5858 0.301683 15.985 0.90505C17.3842 1.50918 18.6012 2.32875 19.6362 3.36375C20.6712 4.39875 21.4904 5.61583 22.0938 7.015C22.6979 8.41417 23 9.90917 23 11.5C23 13.0908 22.6979 14.5858 22.0938 15.985C21.4904 17.3842 20.6712 18.6012 19.6362 19.6362C18.6012 20.6712 17.3842 21.4904 15.985 22.0938C14.5858 22.6979 13.0908 23 11.5 23Z" fill="white"/>
</svg>
