<svg width="32" height="23" viewBox="0 0 32 23" fill="none" xmlns="http://www.w3.org/2000/svg">
<path fill-rule="evenodd" clip-rule="evenodd" d="M3.26225 0.213575C2.66257 0.487957 1.47125 2.36829 0.885866 3.96397C-0.457605 7.6271 -0.293647 11.6611 1.51924 19.5416C2.06027 21.8931 2.21052 22.3502 2.54121 22.6494L2.92908 23H16.0411H29.1532L29.5409 22.6494C29.8714 22.3505 30.0223 21.8922 30.5638 19.5436C31.7829 14.2541 32.0066 12.6902 31.9999 9.5033C31.9947 7.0811 31.9475 6.48632 31.6766 5.43895C31.0666 3.07994 29.6065 0.491178 28.6986 0.158361C28.3936 0.0465531 24.3365 -0.00390585 15.9829 0.000235185C6.00813 0.00514308 3.63043 0.0450195 3.26225 0.213575ZM6.01761 0.856049C6.0672 0.908196 5.91871 1.20144 5.6875 1.50788C4.65386 2.87718 3.79337 5.32929 3.56756 7.54781L3.46224 8.58307H16.0443H28.6263L28.5305 7.59919C28.3176 5.41548 27.4891 3.01752 26.4552 1.59331C25.854 0.765407 25.9356 0.698996 27.4428 0.788565C28.4358 0.847613 28.506 0.877214 28.959 1.42843C30.719 3.56904 31.5901 7.34873 31.2364 11.3085C30.9629 14.3686 29.4206 21.8183 29.0029 22.0965C28.894 22.169 23.0549 22.2295 16.0273 22.2308C4.04003 22.233 3.2357 22.2166 3.02346 21.9647C2.76308 21.6558 1.59801 16.5832 1.17017 13.8956C0.529649 9.87246 0.66706 6.85579 1.60778 4.29096C2.14065 2.83822 3.12221 1.22966 3.6421 0.956967C4.01392 0.761879 5.85379 0.68366 6.01761 0.856049ZM3.7073 12.7624C3.8221 13.8319 4.18372 15.7713 4.75115 18.3605L5.1294 20.0859H16.0411H26.9529L27.3311 18.3605C27.8985 15.7713 28.2602 13.8319 28.375 12.7624L28.4778 11.8039H23.6773H18.8769L18.5166 13.6827L18.1563 15.5615H16.0411H13.926L13.5657 13.6827L13.2054 11.8039H8.40493H3.60446L3.7073 12.7624ZM15.6327 12.7548C15.4398 12.9575 15.3975 13.5301 15.5627 13.7037C15.6204 13.7644 15.6483 14.052 15.6245 14.3428C15.5835 14.8431 15.6057 14.8713 16.0411 14.8713C16.4766 14.8713 16.4987 14.8431 16.4577 14.3428C16.434 14.052 16.4618 13.7644 16.5196 13.7037C16.8396 13.3672 16.5033 12.5707 16.0411 12.5707C15.9128 12.5707 15.729 12.6535 15.6327 12.7548Z" fill="white"/>
</svg>
