<svg width="23" height="23" viewBox="0 0 23 23" fill="none" xmlns="http://www.w3.org/2000/svg">
<path d="M6.70717 0.00398215H0.958167C0.73017 -0.0177566 0.502663 0.050095 0.32382 0.19317C0.144977 0.336244 0.0288396 0.543308 0 0.770516V23H7.66534V0.770516C7.6365 0.543308 7.52036 0.336244 7.34152 0.19317C7.16268 0.050095 6.93517 -0.0177566 6.70717 0.00398215Z" fill="white"/>
<path d="M22.8196 21.5352L17.4998 7.50763C17.4641 7.41351 17.4102 7.32734 17.3411 7.25405C17.2721 7.18077 17.1893 7.1218 17.0975 7.08051C17.0057 7.03923 16.9066 7.01643 16.806 7.01344C16.7053 7.01044 16.6051 7.0273 16.511 7.06305L13.7974 8.12086V4.60247C13.7974 4.39917 13.7167 4.2042 13.5729 4.06045C13.4292 3.9167 13.2342 3.83594 13.0309 3.83594H9.19824V22.9993H13.7974V8.96405L19.1095 22.9993L22.8196 21.5352Z" fill="white"/>
</svg>
