<svg width="185" height="185" viewBox="0 0 185 185" fill="none" xmlns="http://www.w3.org/2000/svg">
<circle cx="93" cy="92" r="92" fill="#A9A9A9" fill-opacity="0.5"/>
<mask id="mask0_104_10306" style="mask-type:alpha" maskUnits="userSpaceOnUse" x="0" y="0" width="185" height="185">
<circle cx="92.1429" cy="92.8572" r="92.1429" fill="#A9A9A9"/>
</mask>
<g mask="url(#mask0_104_10306)">
<path d="M30 161.207C30.1341 151.031 34.2588 141.317 41.4818 134.167C48.7048 127.017 58.4452 123.005 68.5958 123H114.976C125.126 123.005 134.867 127.017 142.09 134.167C149.313 141.317 153.437 151.031 153.571 161.207C136.618 176.524 114.607 185 91.7857 185C68.9648 185 46.9531 176.524 30 161.207V161.207ZM126.571 64.8749C126.571 71.7725 124.531 78.5152 120.708 84.2503C116.886 89.9854 111.453 94.4554 105.097 97.095C98.7412 99.7346 91.7471 100.425 84.9995 99.0796C78.2519 97.734 72.0538 94.4125 67.1891 89.5351C62.3243 84.6578 59.0114 78.4437 57.6692 71.6786C56.327 64.9136 57.0159 57.9014 59.6487 51.5288C62.2814 45.1563 66.7399 39.7096 72.4603 35.8775C78.1806 32.0454 84.9059 30 91.7857 30C101.011 30 109.859 33.6743 116.382 40.2146C122.906 46.7549 126.571 55.6255 126.571 64.8749Z" fill="#F0F0F0"/>
</g>
</svg>
