<svg width="185" height="187" viewBox="0 0 185 187" fill="none" xmlns="http://www.w3.org/2000/svg">
    <circle cx="93" cy="92" r="92" fill="#A9A9A9" fill-opacity="0.5"/>
    <mask id="mask0_104_10306" style="mask-type:alpha" maskUnits="userSpaceOnUse" x="0" y="0" width="185" height="185">
    <circle cx="92.1429" cy="92.8572" r="92.1429" fill="#A9A9A9"/>
    </mask>
    <g mask="url(#mask0_104_10306)">
    <path d="M30 161.207C30.1341 151.031 34.2588 141.317 41.4818 134.167C48.7048 127.017 58.4452 123.005 68.5958 123H114.976C125.126 123.005 134.867 127.017 142.09 134.167C149.313 141.317 153.437 151.031 153.571 161.207C136.618 176.524 114.607 185 91.7857 185C68.9648 185 46.9531 176.524 30 161.207ZM126.571 64.8749C126.571 71.7725 124.531 78.5152 120.708 84.2503C116.886 89.9854 111.453 94.4554 105.097 97.095C98.7412 99.7346 91.7471 100.425 84.9995 99.0796C78.2519 97.734 72.0538 94.4125 67.1891 89.5351C62.3243 84.6578 59.0114 78.4437 57.6692 71.6786C56.327 64.9136 57.0159 57.9014 59.6487 51.5288C62.2814 45.1563 66.7399 39.7096 72.4603 35.8775C78.1806 32.0454 84.9059 30 91.7857 30C101.011 30 109.859 33.6743 116.382 40.2146C122.906 46.7549 126.571 55.6255 126.571 64.8749Z" fill="#F0F0F0"/>
    </g>
    <circle cx="147" cy="161" r="24.5" fill="#00A8E1" stroke="white" stroke-width="3"/>
    <path d="M158.105 153.596H151.223L149.833 151.262C149.697 151.033 149.451 150.894 149.185 150.894H144.814C144.549 150.894 144.303 151.033 144.167 151.262L142.777 153.596H140.519V153.082C140.519 152.666 140.181 152.328 139.765 152.328H136.977C136.561 152.328 136.223 152.666 136.223 153.082V153.596H135.895C134.848 153.596 134 154.445 134 155.491V169.211C134 170.258 134.848 171.106 135.895 171.106H158.105C159.151 171.106 160 170.258 160 169.211V155.491C160 154.445 159.151 153.596 158.105 153.596ZM147 167.745C144.021 167.745 141.606 165.33 141.606 162.351C141.606 159.372 144.021 156.957 147 156.957C149.979 156.957 152.394 159.372 152.394 162.351C152.394 165.33 149.979 167.745 147 167.745ZM156.923 157.503H154.561C154.145 157.503 153.808 157.166 153.808 156.749C153.808 156.333 154.145 155.996 154.561 155.996H156.923C157.339 155.996 157.676 156.333 157.676 156.749C157.676 157.166 157.339 157.503 156.923 157.503Z" fill="white"/>
    <path d="M147 166.119C149.081 166.119 150.768 164.432 150.768 162.351C150.768 160.27 149.081 158.583 147 158.583C144.919 158.583 143.231 160.27 143.231 162.351C143.231 164.432 144.919 166.119 147 166.119Z" fill="white"/>
</svg>
