<svg width="111" height="108" viewBox="0 0 111 108" fill="none" xmlns="http://www.w3.org/2000/svg">
    <path d="M0 43.4565L50.0122 4.94193C53.1722 2.50633 57.5898 2.50633 60.7498 4.94193L110.762 43.4565V108H0V43.4565Z" fill="#0080AB"/>
    <path d="M97.9481 9.24268H12.8145V102.295H97.9481V9.24268Z" fill="#E8E8E8"/>
    <path d="M92.8207 14.8447H17.9346V17.6841H92.8207V14.8447Z" fill="#CBCBCB"/>
    <path d="M81.5736 20.5493H17.9346V23.3887H81.5736V20.5493Z" fill="#CBCBCB"/>
    <path d="M71.2487 26.2471H17.9346V29.0865H71.2487V26.2471Z" fill="#CBCBCB"/>
    <path d="M71.2487 37.1943H17.9346V40.0337H71.2487V37.1943Z" fill="#CBCBCB"/>
    <path d="M57.48 42.668H17.9346V45.5074H57.48V42.668Z" fill="#CBCBCB"/>
    <path d="M94.9234 54.1348H55.3779V56.9742H94.9234V54.1348Z" fill="#CBCBCB"/>
    <path d="M94.9295 59.7236H62.7617V62.563H94.9295V59.7236Z" fill="#CBCBCB"/>
    <path d="M55.3778 75.7476L0 43.4951V108L55.3778 75.7476Z" fill="#00A8E1"/>
    <path d="M55.3779 75.7476L110.762 43.4951V108L55.3779 75.7476Z" fill="#00A8E1"/>
    <path d="M50.0122 69.4854L0 108H110.762L60.7498 69.4854C57.5898 67.0498 53.1722 67.0498 50.0122 69.4854Z" fill="#4CC2EA"/>
    <path d="M100.111 31.818L98.614 31.9826C97.93 32.0579 97.3691 32.5571 97.2172 33.2256L96.8845 34.6891C96.6851 35.5657 95.8039 36.1091 94.9283 35.8964L93.4652 35.5408C92.7968 35.3786 92.0979 35.6565 91.7255 36.2326L90.9106 37.495C90.423 38.2505 89.4086 38.4609 88.6584 37.9624L87.4056 37.1293C86.833 36.7489 86.0812 36.7722 85.5336 37.1868L84.3346 38.0952C83.6171 38.6387 82.591 38.4911 82.0574 37.7668L81.1661 36.5571C80.7587 36.0043 80.0443 35.7699 79.3875 35.9733L77.9494 36.4182C77.0885 36.6845 76.1755 36.1961 75.9223 35.3335L75.5 33.8933C75.3068 33.2349 74.7163 32.7714 74.0291 32.738L72.5248 32.6658C71.6242 32.6223 70.9339 31.8521 70.9924 30.9554L71.0897 29.4577C71.1341 28.7737 70.7384 28.1363 70.1034 27.8707L68.7151 27.29C67.8839 26.9422 67.4998 25.9833 67.8621 25.1603L68.4674 23.7861C68.744 23.158 68.5905 22.4243 68.0857 21.9592L66.9802 20.9406C66.318 20.3303 66.286 19.2985 66.9093 18.6486L67.9501 17.564C68.4253 17.0679 68.5336 16.3264 68.2181 15.717L67.5286 14.3823C67.1157 13.5834 67.4406 12.6028 68.2485 12.2045L69.5986 11.5399C70.2156 11.2363 70.5717 10.5756 70.4844 9.89549L70.2943 8.40636C70.1806 7.51505 70.8217 6.70371 71.7184 6.6051L73.215 6.44051C73.899 6.3652 74.46 5.86597 74.6119 5.19749L74.9445 3.73397C75.144 2.85741 76.0251 2.31393 76.9008 2.52666L78.3638 2.88226C79.0323 3.04453 79.7311 2.76657 80.1035 2.19048L80.9184 0.928054C81.4061 0.172615 82.4204 -0.0377885 83.1707 0.460661L84.4234 1.29374C84.996 1.67418 85.7478 1.65088 86.2955 1.23629L87.4945 0.327896C88.212 -0.215585 89.238 -0.0680691 89.7717 0.656314L90.6629 1.86595C91.0704 2.41875 91.7848 2.65322 92.4415 2.4498L93.8797 2.00492C94.7405 1.73862 95.6536 2.22697 95.9068 3.08956L96.329 4.52978C96.5222 5.18817 97.1128 5.65168 97.7999 5.68507L99.3043 5.75727C100.205 5.80075 100.895 6.57094 100.837 7.46769L100.739 8.96536C100.695 9.64937 101.091 10.2868 101.726 10.5523L103.114 11.1331C103.945 11.4809 104.329 12.4398 103.967 13.2627L103.362 14.637C103.085 15.2651 103.239 15.9988 103.743 16.4639L104.849 17.4825C105.511 18.0927 105.543 19.1246 104.92 19.7744L103.879 20.8591C103.404 21.3552 103.295 22.0966 103.611 22.7061L104.3 24.0408C104.713 24.8397 104.388 25.8203 103.581 26.2186L102.23 26.8832C101.613 27.1867 101.258 27.8475 101.345 28.5276L101.535 30.0167C101.648 30.908 101.007 31.7194 100.111 31.818Z" fill="#EC008C"/>
    <path d="M85.9136 32.1245C93.0693 32.1245 98.8702 26.3434 98.8702 19.2121C98.8702 12.0809 93.0693 6.2998 85.9136 6.2998C78.7579 6.2998 72.957 12.0809 72.957 19.2121C72.957 26.3434 78.7579 32.1245 85.9136 32.1245Z" fill="#F257B3"/>
    <path d="M83.6179 25.9623L77.4033 19.7729L79.3673 17.814L83.5564 21.9864L92.4626 12.5508L94.4866 14.4483L83.6179 25.9623Z" fill="white"/>
</svg>
